# This file uses centimeters as units for non-parametric coordinates.

g default
v -0.339735 -0.538336 0.280748
v -0.339735 -0.646173 -0.370771
v 0.339735 -0.646173 -0.370771
v -0.560820 -0.192212 0.541687
v 0.560820 -0.091063 -0.541687
v 0.339735 -0.591603 -0.041074
v 0.055292 -0.538336 0.280748
v 0.240562 -0.192212 0.541687
v 0.560820 -0.165775 0.258523
v 0.218899 0.628523 0.140380
v -0.085102 0.511716 0.417396
v -0.455875 0.301883 -0.013520
v -0.072824 0.646173 0.098522
v -0.107103 0.427995 -0.328084
v 0.218899 0.639557 0.114212
v 0.350239 0.437522 -0.324163
v -0.478209 0.146502 0.481881
v -0.560820 -0.123056 -0.199007
v -0.220255 -0.091063 -0.541687
v -0.468131 -0.323792 -0.470031
vt 0.499307 0.317678
vt 0.640002 0.178453
vt 0.790680 0.278470
vt 0.744025 0.378290
vt 0.608821 0.406230
vt 0.338297 0.336699
vt 0.504570 0.068770
vt 0.632463 0.096311
vt 0.584290 0.761890
vt 0.595747 0.564199
vt 0.364543 0.684750
vt 0.364840 0.575000
vt 0.332862 0.443393
vt 0.297617 0.977371
vt 0.295278 0.810046
vt 0.358336 0.689973
vt 0.745590 0.025569
vt 0.187159 0.551910
vt 0.190188 0.707154
vt 0.300351 0.637546
vt 0.035520 0.759343
vt 0.043485 0.527289
vt 0.773775 0.556145
vt 0.973316 0.275396
vn -0.000000 -0.986578 0.163294
vn -0.000000 -0.986578 0.163294
vn -0.000000 -0.986578 0.163294
vn -0.000000 -0.986577 0.163294
vn 0.000000 -0.986577 0.163295
vn -0.857744 -0.511851 -0.047790
vn -0.905435 -0.423805 0.024023
vn -0.887057 -0.461619 -0.006134
vn -0.915276 -0.400627 0.042043
vn -0.915276 -0.400627 0.042043
vn 0.513591 -0.664509 0.542819
vn 0.513591 -0.664509 0.542819
vn 0.513591 -0.664509 0.542819
vn 0.513591 -0.664509 0.542819
vn 0.570900 0.372755 0.731524
vn 0.570900 0.372755 0.731524
vn 0.570900 0.372755 0.731524
vn 0.570900 0.372755 0.731524
vn 0.000000 0.173879 0.984767
vn 0.000000 0.173879 0.984767
vn 0.000000 0.173879 0.984767
vn 0.000000 0.173879 0.984767
vn 0.923406 0.379262 0.059001
vn 0.923419 0.379242 0.058934
vn 0.923419 0.379242 0.058934
vn 0.922989 0.379927 0.061208
vn 0.894985 0.411045 0.173328
vn 0.000000 -0.601985 0.798507
vn 0.000000 -0.601985 0.798507
vn 0.000000 -0.601985 0.798507
vn 0.000000 -0.601985 0.798507
vn 0.911996 -0.410134 -0.007311
vn 0.911996 -0.410134 -0.007311
vn 0.911996 -0.410134 -0.007311
vn 0.911996 -0.410134 -0.007311
vn 0.000000 -0.294264 -0.955724
vn 0.000000 -0.294264 -0.955724
vn 0.000000 -0.294264 -0.955724
vn 0.000000 -0.294264 -0.955724
vn 0.000000 -0.294264 -0.955724
vn -0.672628 0.422338 -0.607620
vn -0.665806 0.490008 -0.562667
vn -0.663522 0.502534 -0.554255
vn -0.672069 0.423675 -0.607308
vn -0.664848 0.712209 0.225248
vn -0.664847 0.712209 0.225248
vn -0.664848 0.712209 0.225248
vn -0.664848 0.712209 0.225248
vn 0.007924 0.899796 -0.436238
vn 0.007924 0.899796 -0.436238
vn 0.007924 0.899796 -0.436238
vn 0.007924 0.899796 -0.436238
vn 0.000001 0.921433 0.388536
vn 0.000001 0.921433 0.388536
vn 0.000001 0.921433 0.388536
vn 0.000001 0.921433 0.388536
vn -0.000000 0.380557 -0.924757
vn -0.000000 0.380557 -0.924757
vn -0.000000 0.380557 -0.924757
vn -0.000000 0.380557 -0.924757
vn -0.971781 0.234551 0.025048
vn -0.971781 0.234551 0.025048
vn -0.971781 0.234551 0.025048
vn -0.971781 0.234551 0.025048
vn -0.573314 0.747232 -0.336088
vn -0.637731 0.498421 -0.587261
s 1
g b
f 1/1/1 2/2/2 3/3/3 6/4/4
f 6/4/4 7/5/5 1/1/1
s 2
f 4/6/6 18/7/7 1/1/8
f 20/8/9 2/2/10 1/1/8 18/7/7
s off
f 7/5/11 6/4/12 9/23/13 8/10/14
f 8/10/15 9/9/16 10/11/17 11/12/18
f 17/13/19 4/6/20 8/10/21 11/12/22
s 3
f 9/9/23 5/14/24 16/15/25 15/16/26
f 10/11/27 9/9/23 15/16/26
s off
f 1/1/28 7/5/29 8/10/30 4/6/31
f 5/24/32 9/23/33 6/4/34 3/3/35
s 4
f 5/24/36 3/3/37 19/17/38
f 20/8/39 19/17/38 3/3/37 2/2/40
s 5
f 18/22/41 12/18/42 14/19/43 19/21/44
s off
f 11/12/45 13/20/46 12/18/47 17/13/48
f 14/19/49 13/20/50 15/16/51 16/15/52
f 10/11/53 15/16/54 13/20/55 11/12/56
f 19/21/57 14/19/58 16/15/59 5/14/60
f 12/18/61 18/22/62 4/6/63 17/13/64
s 5
f 12/18/42 13/20/65 14/19/43
f 18/7/41 19/17/44 20/8/66
