# This file uses centimeters as units for non-parametric coordinates.

mtllib rock_LARGE.mtl
g default
v 15.824642 7.569437 9.178925
v 13.010655 7.845671 8.310915
v 12.324330 6.481615 7.990492
v 16.351628 7.109850 9.300528
v 12.679349 7.268700 7.984181
v 12.324330 6.481618 9.057662
v 13.011932 6.056655 9.224708
v 13.167562 7.109850 9.490235
v 12.568132 7.122566 9.022702
v 15.601700 7.845671 8.310915
v 16.172793 7.143833 7.805619
v 16.537329 6.795703 9.312343
v 16.324732 6.056655 9.052864
v 16.564404 6.790371 8.311872
v 16.365074 6.056652 8.100707
v 13.348727 7.628987 9.350974
v 13.010655 7.682007 9.098295
v 13.078638 6.056652 7.928864
v 15.018326 6.056652 7.928864
v 14.967180 6.056655 9.224708
vt 0.135798 0.437975
vt 0.113852 0.286711
vt 0.184530 0.321181
vt 0.208287 0.373193
vt 0.042021 0.451608
vt 0.865758 0.816956
vt 0.414470 0.576418
vt 0.356764 0.469251
vt 0.474683 0.679489
vt 0.579503 0.627965
vt 0.329329 0.121315
vt 0.611891 0.363508
vt 0.462316 0.345614
vt 0.570570 0.254974
vt 0.347167 0.087949
vt 0.322900 0.208555
vt 0.731879 0.311310
vt 0.417156 0.000000
vt 0.685183 0.459745
vt 0.169067 0.020184
vt 0.994071 0.637412
vt 1.000000 0.472836
vt 0.000000 0.265751
vt 0.744149 0.872524
vn 0.024480 0.966802 0.254353
vn 0.019594 0.969512 0.244260
vn 0.000000 0.979073 0.203509
vn -0.446655 -0.016438 0.894555
vn -0.037051 -0.163006 0.985929
vn -0.044029 -0.016809 0.998889
vn -0.487564 0.100546 0.867278
vn -0.551456 0.363210 0.750983
vn -0.551455 0.363210 0.750983
vn 0.748987 0.661886 -0.030434
vn 0.753933 0.653814 -0.064121
vn 0.742089 0.667003 -0.066408
vn 0.779689 -0.031839 -0.625357
vn 0.779689 -0.031839 -0.625357
vn 0.779689 -0.031839 -0.625357
vn 0.959625 -0.279234 0.033895
vn 0.959625 -0.279234 0.033895
vn 0.959625 -0.279234 0.033895
vn 0.959625 -0.279234 0.033895
vn 0.041625 -0.012078 0.999060
vn 0.064182 0.278124 0.958398
vn 0.064182 0.278124 0.958398
vn -0.013476 0.543532 -0.839280
vn -0.013476 0.543532 -0.839280
vn -0.013476 0.543532 -0.839280
vn -0.013476 0.543532 -0.839280
vn 0.000000 -1.000000 0.000002
vn 0.000000 -1.000000 0.000002
vn 0.000000 -1.000000 0.000002
vn 0.000000 -1.000000 0.000002
vn -0.895523 0.445014 0.000347
vn -0.887421 0.460914 0.006491
vn -0.832807 0.551898 0.042913
vn -0.832807 0.551898 0.042913
vn 0.009927 -0.138520 0.990310
vn 0.041347 -0.196850 0.979561
vn 0.117217 -0.358840 0.926010
vn -0.922206 0.386078 -0.021915
vn -0.922206 0.386078 -0.021915
vn -0.506966 -0.861848 -0.014309
vn -0.506966 -0.861848 -0.014309
vn -0.506966 -0.861848 -0.014309
vn -0.506966 -0.861848 -0.014309
vn -0.034470 -0.017185 -0.999258
vn -0.034588 -0.017047 -0.999256
vn -0.068568 0.022931 -0.997383
vn 0.770806 0.635839 -0.039577
vn 0.770806 0.635839 -0.039577
vn 0.645321 0.760107 0.076150
vn 0.000000 -1.000000 0.000002
vn 0.000000 -1.000000 0.000002
vn -0.014091 -0.046011 -0.998842
vn -0.015559 -0.043916 -0.998914
vn 0.122883 -0.239662 -0.963048
vn 0.030862 0.963065 0.267496
vn 0.030862 0.963065 0.267496
s 1
g pCube7
usemtl initialShadingGroup
f 17/4/1 10/13/2 2/8/3
s 2
f 6/5/4 7/23/5 8/2/6 9/1/7
f 9/1/7 8/2/6 16/3/8 17/4/9
s 3
f 4/11/10 11/12/11 10/13/12
s off
f 11/12/13 14/14/14 15/17/15
f 12/15/16 13/18/17 15/17/18 14/14/19
s 2
f 8/2/6 4/11/20 1/16/21 16/3/22
s off
f 11/12/23 5/7/24 2/8/25 10/13/26
s 4
f 7/6/27 18/10/28 19/19/29 20/21/30
s 5
f 5/7/31 9/1/32 17/4/33 2/8/34
s 2
f 12/15/35 20/20/36 13/18/37
s 5
f 3/9/38 6/5/39 9/1/32 5/7/31
s off
f 3/9/40 18/10/41 7/6/42 6/24/43
s 7
f 5/7/44 18/10/45 3/9/46
s 3
f 14/14/47 11/12/11 4/11/10 12/15/48
f 4/11/10 10/13/12 1/16/49
s 4
f 20/21/30 19/19/29 15/17/50 13/22/51
s 2
f 4/11/20 20/20/36 12/15/35
s 7
f 19/19/52 11/12/53 15/17/54
f 19/19/52 18/10/45 5/7/44 11/12/53
s 1
f 17/4/1 16/3/55 1/16/56 10/13/2
s 2
f 8/2/6 7/23/5 20/20/36 4/11/20
