# This file uses centimeters as units for non-parametric coordinates.

v 0.000000 0.000000 0.000000
v 0.000000 2.438160 0.000000
v 1.000000 0.000000 0.000000
v 1.000000 2.438160 0.000000
v 0.295744 0.000000 0.000000
v 0.295744 2.438160 0.000000
v 0.000000 1.348151 0.000000
v 0.000000 1.861878 0.000000
v 0.295744 1.605015 0.000000
v 0.018734 1.861878 0.037522
v 0.264688 1.605015 0.037522
v 0.264688 2.438160 0.037522
v 0.018734 2.438160 0.037522
v 0.264688 0.000000 0.037522
v 0.018734 1.348151 0.037522
v 0.018734 0.000000 0.037522
v 1.000000 1.605015 0.000000
v 0.715997 0.000000 0.000000
v 0.720396 0.693348 0.000000
v 0.720396 1.315085 0.000000
v 0.295745 0.987009 0.000000
v 0.295744 0.344575 0.000000
v 0.761073 1.893212 -0.000000
v 0.338709 1.605015 0.000000
v 0.761073 1.315085 -0.000000
v 0.339629 0.988317 -0.000000
v 0.761073 0.693348 -0.000000
v 0.339629 0.346196 -0.000000
v 0.761073 0.000000 0.000000
v 0.761073 2.438160 0.000000
v 0.761072 1.605015 0.000000
v 1.000000 1.893212 0.000000
v 1.000000 1.315085 0.000000
v 1.000000 0.693348 0.000000
v 0.761073 1.922735 -0.000000
v 1.000000 1.922735 0.000000
v 0.295744 1.605015 -0.041234
v 0.338709 1.605015 -0.041234
v 0.761073 1.893212 -0.041235
v 0.761073 1.922735 -0.041235
v 0.720396 1.315085 -0.041234
v 0.761073 1.315085 -0.041235
v 0.295745 0.987009 -0.041234
v 0.339629 0.988317 -0.041235
v 0.720396 0.693348 -0.041234
v 0.761073 0.693348 -0.041235
v 0.295744 0.344576 -0.041234
v 0.339629 0.346196 -0.041235
v 0.715997 -0.000000 -0.041234
v 0.761073 -0.000000 -0.041234
v 0.248150 1.605015 0.002597
vt 0.579831 0.773998
vt 0.680145 0.656911
vt 0.680145 0.983581
vt 0.579831 0.983581
vt 0.680145 0.016878
vt 0.579831 0.545118
vt 0.579831 0.016878
vt 0.695383 0.656911
vt 0.695383 0.998240
vt 0.563116 0.998240
vt 0.563115 0.771303
vt 0.695383 0.000000
vt 0.695383 0.146789
vt 0.695383 0.403392
vt 0.563116 0.546324
vt 0.563116 0.000000
vt 0.864700 0.538009
vt 0.904386 0.538009
vt 0.998988 0.538009
vt 0.998988 0.656911
vt 0.904386 0.656911
vt 0.865882 0.293795
vt 0.868152 0.000000
vt 0.904386 0.998240
vt 0.904386 0.804900
vt 0.998988 0.804900
vt 0.998988 0.998240
vt 0.708513 0.656911
vt 0.721407 0.656911
vt 0.896610 0.781999
vt 0.896610 0.790944
vt 0.877847 0.538009
vt 0.889872 0.538009
vt 0.709674 0.403392
vt 0.722209 0.403392
vt 0.879207 0.293817
vt 0.891040 0.293737
vt 0.710698 0.146789
vt 0.722931 0.146789
vt 0.880961 0.000000
vt 0.893192 0.000000
vt 0.904386 0.777424
vt 0.735379 0.656911
vt 0.904386 0.293255
vt 0.735138 0.403392
vt 0.736108 0.146789
vt 0.904386 0.000000
vt 0.998988 0.777424
vt 0.998988 0.293255
vt 0.998988 0.000000
vt 0.659441 0.656911
vn -0.000000 -0.000000 1.000000
vn -0.000000 -0.000000 1.000000
vn -0.000000 -0.000000 1.000000
vn -0.000000 -0.000000 1.000000
vn -0.000000 -0.000000 1.000000
vn -0.000000 -0.000000 1.000000
vn -0.000000 -0.000000 1.000000
vn -0.000000 -0.000000 1.000000
vn 0.770356 0.000000 0.637614
vn 0.770356 0.000000 0.637614
vn 0.770356 0.000000 0.637614
vn 0.770356 0.000000 0.637614
vn 0.000000 1.000000 0.000001
vn 0.000000 1.000000 0.000001
vn 0.000000 1.000000 0.000001
vn 0.000000 1.000000 0.000001
vn -0.894689 -0.000000 0.446690
vn -0.894689 -0.000000 0.446690
vn -0.894689 -0.000000 0.446690
vn -0.894689 -0.000000 0.446690
vn 0.770354 -0.000000 0.637616
vn 0.770354 -0.000000 0.637616
vn 0.770354 -0.000000 0.637616
vn 0.770354 -0.000000 0.637616
vn 0.770354 -0.000000 0.637616
vn 0.770354 -0.000000 0.637616
vn -0.894689 -0.000000 0.446690
vn -0.894689 -0.000000 0.446690
vn -0.894689 -0.000000 0.446690
vn -0.894689 -0.000000 0.446690
vn 0.000000 -1.000000 0.000000
vn 0.000000 -1.000000 0.000000
vn 0.000000 -1.000000 0.000000
vn 0.000000 -1.000000 0.000000
vn 0.000000 -0.000000 1.000000
vn 0.000000 -0.000000 1.000000
vn 0.000000 -0.000000 1.000000
vn -0.000001 -0.000000 1.000000
vn -0.000002 -0.000000 1.000000
vn -0.000001 -0.000000 1.000000
vn -0.000000 -0.000000 1.000000
vn 0.000000 -0.000000 1.000000
vn 0.000000 -0.000000 1.000000
vn 0.000000 -0.000000 1.000000
vn 0.000000 0.000000 1.000000
vn 0.000000 0.000000 1.000000
vn 0.000000 0.000000 1.000000
vn 0.000000 -0.000000 1.000000
vn 0.000000 -0.000000 1.000000
vn -0.000001 -0.000000 1.000000
vn -0.000001 -0.000000 1.000000
vn 0.000003 0.000003 1.000000
vn 0.000003 0.000003 1.000000
vn 0.000001 0.000000 1.000000
vn 0.000001 0.000000 1.000000
vn 0.000008 -0.000004 1.000000
vn 0.000008 -0.000005 1.000000
vn 0.000010 -0.000000 1.000000
vn 0.000010 -0.000000 1.000000
vn 0.000010 0.000000 1.000000
vn 0.000010 -0.000001 1.000000
vn 0.000007 -0.000002 1.000000
vn 0.000008 -0.000003 1.000000
vn 0.000005 0.000006 1.000000
vn 0.000005 0.000006 1.000000
vn 0.000001 -0.000000 1.000000
vn 0.000001 -0.000000 1.000000
vn -0.000001 0.000001 1.000000
vn 0.000000 -0.000000 1.000000
vn -0.000001 0.000000 1.000000
vn 0.000000 0.000000 1.000000
vn -0.000001 0.000001 1.000000
vn -0.000001 0.000000 1.000000
vn -0.000001 0.000001 1.000000
vn -0.000001 0.000000 1.000000
vn -0.000001 0.000000 1.000000
vn -0.563633 0.826025 -0.000003
vn -0.563634 0.826025 -0.000003
vn -0.563634 0.826025 -0.000003
vn -0.563633 0.826025 -0.000003
vn -1.000000 0.000000 0.000000
vn -1.000000 0.000000 0.000000
vn -1.000000 0.000000 0.000000
vn -1.000000 0.000000 0.000000
vn 0.563883 -0.825855 0.000000
vn 0.563883 -0.825855 0.000000
vn 0.563883 -0.825855 0.000000
vn 0.563883 -0.825855 0.000000
vn 0.563861 0.825870 0.000000
vn 0.563861 0.825870 0.000000
vn 0.563861 0.825870 0.000000
vn 0.563861 0.825870 0.000000
vn -0.565939 -0.824447 0.000000
vn -0.565939 -0.824447 0.000000
vn -0.565939 -0.824447 0.000000
vn -0.565939 -0.824447 0.000000
vn 0.611374 -0.791342 0.000000
vn 0.611374 -0.791342 0.000000
vn 0.611374 -0.791342 0.000000
vn 0.611374 -0.791342 0.000000
vn -0.612746 0.790280 0.000000
vn -0.612746 0.790280 0.000000
vn -0.612746 0.790280 0.000000
vn -0.612746 0.790280 0.000000
vn 0.568779 0.822490 -0.000001
vn 0.568779 0.822490 -0.000001
vn 0.568779 0.822490 -0.000001
vn 0.568779 0.822490 -0.000001
vn -0.573408 -0.819270 0.000001
vn -0.573407 -0.819270 0.000001
vn -0.573407 -0.819270 0.000001
vn -0.573408 -0.819270 0.000001
vn 0.634687 -0.772769 0.000000
vn 0.634687 -0.772769 0.000000
vn 0.634687 -0.772769 0.000000
vn 0.634687 -0.772769 0.000000
vn -0.635795 0.771858 0.000000
vn -0.635795 0.771858 0.000000
vn -0.635795 0.771858 0.000000
vn -0.635795 0.771858 0.000000
vn 0.634045 0.773296 -0.000001
vn 0.634045 0.773296 -0.000001
vn 0.634045 0.773296 -0.000001
vn 0.634045 0.773296 -0.000001
vn -0.634750 -0.772717 0.000001
vn -0.634750 -0.772717 0.000001
vn -0.634750 -0.772717 0.000001
vn -0.634751 -0.772717 0.000001
vn -0.680827 -0.653147 0.331472
vn -0.680827 -0.653147 0.331472
vn -0.680827 -0.653147 0.331472
vn -0.680827 -0.653147 0.331472
vn -0.680828 0.653147 0.331470
vn -0.680828 0.653147 0.331470
vn -0.680828 0.653147 0.331470
vn -0.680828 0.653147 0.331470
s off
f 10/1/1 11/2/2 12/3/3 13/4/4
f 14/5/5 11/2/6 15/6/7 16/7/8
f 9/8/9 6/9/10 12/3/11 11/2/12
f 6/9/13 2/10/14 13/4/15 12/3/16
f 2/10/17 8/11/18 10/1/19 13/4/20
f 5/12/21 22/13/22 21/14/23 9/8/24 11/2/25 14/5/26
f 7/15/27 1/16/28 16/7/29 15/6/30
f 1/16/31 5/12/32 14/5/33 16/7/34
f 21/14/35 20/17/36 9/8/37
s 1
f 25/18/38 33/19/39 17/20/40 31/21/41
s off
f 22/13/42 19/22/43 21/14/44
f 5/12/45 18/23/46 22/13/47
s 1
f 30/24/48 35/25/49 36/26/50 4/27/51
s 3
f 37/28/52 38/29/53 39/30/54 40/31/55
f 38/29/53 37/28/52 41/32/56 42/33/57
f 41/32/56 43/34/58 44/35/59 42/33/57
f 44/35/59 43/34/58 45/36/60 46/37/61
f 45/36/60 47/38/62 48/39/63 46/37/61
f 48/39/63 47/38/62 49/40/64 50/41/65
s 1
f 6/9/66 9/8/67 35/25/49 30/24/48
f 31/21/41 23/42/68 24/43/69
f 25/18/38 31/21/41 24/43/69
f 27/44/70 25/18/38 26/45/71
f 27/44/70 28/46/72 29/47/73
f 32/48/74 23/42/68 31/21/41 17/20/40
f 27/44/70 34/49/75 33/19/39 25/18/38
f 27/44/70 29/47/73 3/50/76 34/49/75
f 36/26/50 35/25/49 23/42/68 32/48/74
s off
f 24/43/77 23/42/78 39/30/79 38/29/80
f 23/42/81 35/25/82 40/31/83 39/30/84
f 35/25/85 9/8/86 37/28/87 40/31/88
f 9/8/89 20/17/90 41/32/91 37/28/92
f 25/18/93 24/43/94 38/29/95 42/33/96
f 20/17/97 21/14/98 43/34/99 41/32/100
f 26/45/101 25/18/102 42/33/103 44/35/104
f 21/14/105 19/22/106 45/36/107 43/34/108
f 27/44/109 26/45/110 44/35/111 46/37/112
f 19/22/113 22/13/114 47/38/115 45/36/116
f 28/46/117 27/44/118 46/37/119 48/39/120
f 22/13/121 18/23/122 49/40/123 47/38/124
f 29/47/125 28/46/126 48/39/127 50/41/128
f 11/2/129 10/1/130 8/11/131 51/51/132
f 15/6/133 11/2/134 51/51/135 7/15/136
