# This file uses centimeters as units for non-parametric coordinates.

v 0.000000 0.000000 0.000000
v 2.000000 0.000000 0.000000
v 0.000000 4.000000 0.000000
v 2.000000 4.000000 0.000000
v 0.000000 3.428232 0.000000
v 2.000000 3.428232 0.000000
v 0.000000 2.992380 0.000000
v 2.000000 2.992380 0.000000
v 0.000000 3.042284 0.046103
v 2.000000 3.042284 0.046103
v 2.000000 3.378327 0.046103
v 0.000000 3.378327 0.046103
v 0.196730 0.000000 0.000000
v 1.803270 0.000000 0.000000
v 0.196730 1.548447 0.000000
v 0.304348 1.950082 0.000000
v 0.598365 2.244100 0.000000
v 1.000000 2.351717 0.000000
v 1.401635 2.244100 0.000000
v 1.695653 1.950082 0.000000
v 1.803270 1.548447 0.000000
v 1.000000 2.992380 0.000000
v 1.000000 3.042284 0.046103
v 1.000000 3.378327 0.046103
v 1.000000 3.428232 0.000000
v 1.000000 4.000000 0.000000
v 2.000000 1.950082 0.000000
v 0.000000 1.950082 0.000000
v 2.000000 1.548447 0.000000
v 0.000000 1.548447 0.000000
v 0.196730 0.000000 -0.200234
v 0.196730 1.548447 -0.200234
v 0.304348 1.950082 -0.200234
v 0.598365 2.244100 -0.200234
v 1.000000 2.351717 -0.200234
v 1.401635 2.244100 -0.200234
v 1.695653 1.950082 -0.200234
v 1.803270 1.548447 -0.200234
v 1.803270 0.000000 -0.200234
vt 0.000344 0.857289
vt 0.248733 0.857289
vt 0.248733 0.999310
vt 0.000344 0.999310
vt 0.000344 0.756944
vt 0.248733 0.756944
vt 0.248733 0.840413
vt 0.000344 0.840414
vt 0.000344 0.001610
vt 0.049209 0.001610
vt 0.049210 0.381412
vt 0.000344 0.381412
vt 0.000344 0.740069
vt 0.248733 0.740068
vt 0.248733 0.580935
vt 0.348494 0.554204
vt 0.496378 0.740068
vt 0.496378 0.756944
vt 0.496378 0.840413
vt 0.496378 0.857289
vt 0.496378 0.999310
vt 0.421525 0.481174
vt 0.496378 0.481174
vt 0.148971 0.554204
vt 0.448256 0.381412
vt 0.496378 0.381412
vt 0.000344 0.481174
vt 0.075941 0.481174
vt 0.448256 0.001610
vt 0.496378 0.001610
vt 0.536603 0.270365
vt 0.536603 0.001610
vt 0.571356 0.001610
vt 0.571356 0.270365
vt 0.536603 0.342533
vt 0.571357 0.342533
vt 0.536603 0.414702
vt 0.571357 0.414702
vt 0.536603 0.486870
vt 0.571357 0.486870
vt 0.536603 0.559039
vt 0.571357 0.559039
vt 0.536603 0.631207
vt 0.571357 0.631207
vt 0.536603 0.703376
vt 0.571357 0.703376
vt 0.536603 0.972130
vt 0.571357 0.972130
vn 0.000000 0.000000 1.000000
vn 0.000000 0.000000 1.000000
vn 0.000000 0.000000 1.000000
vn 0.000000 0.000000 1.000000
vn 0.000000 0.000000 1.000000
vn 0.000000 0.000000 1.000000
vn 0.000000 0.000000 1.000000
vn 0.000000 0.000000 1.000000
vn 0.000000 0.000000 1.000000
vn 0.000000 0.000000 1.000000
vn 0.000000 0.000000 1.000000
vn 0.000000 0.000000 1.000000
vn 0.000000 -0.678576 0.734530
vn 0.000000 -0.678576 0.734530
vn 0.000000 -0.678576 0.734530
vn 0.000000 -0.678576 0.734530
vn 0.000000 0.678574 0.734532
vn 0.000000 0.678574 0.734532
vn 0.000000 0.678574 0.734532
vn 0.000000 0.678574 0.734532
vn 0.000000 0.000000 1.000000
vn 0.000000 0.000000 1.000000
vn 0.000000 0.000000 1.000000
vn 0.000000 0.000000 1.000000
vn 0.000000 -0.678576 0.734530
vn 0.000000 -0.678576 0.734530
vn 0.000000 0.000000 1.000000
vn 0.000000 0.000000 1.000000
vn 0.000000 0.678574 0.734532
vn 0.000000 0.678574 0.734532
vn 0.000000 0.000000 1.000000
vn 0.000000 0.000000 1.000000
vn 0.000000 0.000000 1.000000
vn 0.000000 0.000000 1.000000
vn 0.000000 0.000000 1.000000
vn 0.000000 0.000000 1.000000
vn 0.000000 0.000000 1.000000
vn 0.000000 0.000000 1.000000
vn 0.000000 0.000000 1.000000
vn 0.000000 0.000000 1.000000
vn 0.000000 0.000000 1.000000
vn 0.000000 0.000000 1.000000
vn 0.998481 -0.055102 0.000000
vn 1.000000 0.000000 0.000000
vn 1.000000 0.000000 0.000000
vn 0.998481 -0.055102 0.000000
vn 0.866025 -0.500000 0.000000
vn 0.866025 -0.500000 0.000000
vn 0.500000 -0.866026 0.000000
vn 0.500000 -0.866026 0.000000
vn 0.000000 -1.000000 0.000000
vn 0.000000 -1.000000 0.000000
vn -0.500000 -0.866026 0.000000
vn -0.500000 -0.866026 0.000000
vn -0.866025 -0.500000 0.000000
vn -0.866025 -0.500000 0.000000
vn -0.998481 -0.055102 0.000000
vn -0.998481 -0.055102 0.000000
vn -1.000000 0.000000 0.000000
vn -1.000000 0.000000 0.000000
s 1
f 5/1/1 25/2/2 26/3/3 3/4/4
s 2
f 9/5/5 23/6/6 24/7/7 12/8/8
s 3
f 1/9/9 13/10/10 15/11/11 30/12/12
s 4
f 7/13/13 22/14/14 23/6/15 9/5/16
s 5
f 24/7/17 25/2/18 5/1/19 12/8/20
s 3
f 22/14/21 18/15/22 19/16/23 8/17/24
s 4
f 23/6/15 22/14/14 8/17/25 10/18/26
s 2
f 24/7/7 23/6/6 10/18/27 11/19/28
s 5
f 6/20/29 25/2/18 24/7/17 11/19/30
s 1
f 26/3/3 25/2/2 6/20/31 4/21/32
s 3
f 8/17/24 19/16/23 20/22/33 27/23/34
f 7/13/35 17/24/36 18/15/22 22/14/21
f 27/23/34 20/22/33 21/25/37 29/26/38
f 28/27/39 16/28/40 17/24/36 7/13/35
f 29/26/38 21/25/37 14/29/41 2/30/42
f 30/12/12 15/11/11 16/28/40 28/27/39
s 7
f 15/31/43 13/32/44 31/33/45 32/34/46
f 16/35/47 15/31/43 32/34/46 33/36/48
f 17/37/49 16/35/47 33/36/48 34/38/50
f 18/39/51 17/37/49 34/38/50 35/40/52
f 19/41/53 18/39/51 35/40/52 36/42/54
f 20/43/55 19/41/53 36/42/54 37/44/56
f 21/45/57 20/43/55 37/44/56 38/46/58
f 14/47/59 21/45/57 38/46/58 39/48/60
