# This file uses centimeters as units for non-parametric coordinates.

v 0.070278 -0.721184 -0.215243
v -0.125148 -0.721184 -0.237940
v -0.250297 -0.721184 -0.021177
v -0.179330 -0.721184 0.222746
v 0.109169 -0.721184 0.237940
v 0.250297 -0.721184 -0.021177
v 0.070278 0.484905 -0.215243
v -0.125148 0.484905 -0.237940
v -0.250297 0.484905 -0.021177
v -0.179330 0.484905 0.222746
v 0.109169 0.484905 0.237940
v 0.250297 0.484905 -0.021177
v 0.000000 -0.984793 -0.021177
v 0.000000 0.984793 -0.021177
vt 0.629476 0.486110
vt 0.489285 0.623702
vt 0.561146 0.862343
vt 0.792541 0.963663
vt 0.995162 0.760895
vt 0.893474 0.486110
vt 0.040570 0.019385
vt 0.159856 0.019385
vt 0.311615 0.019385
vt 0.465642 0.019385
vt 0.640805 0.019385
vt 0.819703 0.019385
vt 0.980198 0.019385
vt 0.040569 0.468758
vt 0.159856 0.468758
vt 0.311615 0.468758
vt 0.465642 0.468758
vt 0.640805 0.468758
vt 0.819703 0.468758
vt 0.980198 0.468758
vt 0.401541 0.531881
vt 0.115618 0.531881
vt 0.015042 0.763571
vt 0.138401 0.979939
vt 0.335022 0.987763
vt 0.518491 0.799082
vt 0.731683 0.679620
vt 0.266022 0.767548
vn 0.115369 -0.000000 -0.993323
vn 0.115369 -0.000000 -0.993323
vn 0.115369 -0.000000 -0.993323
vn 0.115369 -0.000000 -0.993323
vn -0.866026 -0.000000 -0.500000
vn -0.866026 -0.000000 -0.500000
vn -0.866026 -0.000000 -0.500000
vn -0.866026 -0.000000 -0.500000
vn -0.960187 0.000000 0.279357
vn -0.960187 0.000000 0.279357
vn -0.960187 0.000000 0.279357
vn -0.960187 0.000000 0.279357
vn -0.052594 0.000000 0.998616
vn -0.052594 0.000000 0.998616
vn -0.052594 0.000000 0.998616
vn -0.052594 0.000000 0.998616
vn 0.878193 -0.000000 0.478307
vn 0.878193 -0.000000 0.478307
vn 0.878193 -0.000000 0.478307
vn 0.878193 -0.000000 0.478307
vn 0.733142 0.000000 -0.680076
vn 0.733142 0.000000 -0.680076
vn 0.733142 0.000000 -0.680076
vn 0.733142 0.000000 -0.680076
vn 0.091761 -0.606106 -0.790073
vn 0.091761 -0.606106 -0.790073
vn 0.091761 -0.606106 -0.790073
vn -0.668918 -0.635137 -0.386200
vn -0.668918 -0.635137 -0.386200
vn -0.668918 -0.635137 -0.386200
vn -0.709560 -0.673726 0.206440
vn -0.709560 -0.673726 0.206440
vn -0.709560 -0.673726 0.206440
vn -0.037943 -0.692464 0.720454
vn -0.037943 -0.692464 0.720454
vn -0.037943 -0.692464 0.720454
vn 0.674477 -0.640415 0.367354
vn 0.674477 -0.640415 0.367354
vn 0.674477 -0.640415 0.367354
vn 0.601709 -0.571322 -0.558156
vn 0.601709 -0.571322 -0.558156
vn 0.601709 -0.571322 -0.558156
vn 0.107051 0.372866 -0.921689
vn 0.107050 0.372866 -0.921689
vn 0.107051 0.372866 -0.921689
vn -0.794543 0.397831 -0.458729
vn -0.794543 0.397831 -0.458729
vn -0.794543 0.397831 -0.458729
vn -0.865371 0.433295 0.251771
vn -0.865371 0.433295 0.251771
vn -0.865371 0.433295 0.251771
vn -0.046926 0.451596 0.890988
vn -0.046926 0.451596 0.890988
vn -0.046926 0.451596 0.890988
vn 0.803907 0.402520 0.437847
vn 0.803907 0.402520 0.437847
vn 0.803907 0.402520 0.437847
vn 0.688236 0.344603 -0.638420
vn 0.688236 0.344603 -0.638420
vn 0.688236 0.344603 -0.638420
s off
f 1/7/1 2/8/2 8/15/3 7/14/4
f 2/8/5 3/9/6 9/16/7 8/15/8
f 3/9/9 4/10/10 10/17/11 9/16/12
f 4/10/13 5/11/14 11/18/15 10/17/16
f 5/11/17 6/12/18 12/19/19 11/18/20
f 6/12/21 1/13/22 7/20/23 12/19/24
f 2/2/25 1/1/26 13/27/27
f 3/3/28 2/2/29 13/27/30
f 4/4/31 3/3/32 13/27/33
f 5/5/34 4/4/35 13/27/36
f 6/6/37 5/5/38 13/27/39
f 1/1/40 6/6/41 13/27/42
f 7/25/43 8/24/44 14/28/45
f 8/24/46 9/23/47 14/28/48
f 9/23/49 10/22/50 14/28/51
f 10/22/52 11/21/53 14/28/54
f 11/21/55 12/26/56 14/28/57
f 12/26/58 7/25/59 14/28/60
