# This file uses centimeters as units for non-parametric coordinates.

v 0.081291 -0.599655 -0.362075
v -0.344354 -0.599655 -0.223775
v -0.344354 -0.599655 0.223775
v 0.081291 -0.599655 0.362075
v 0.344354 -0.599655 0.000000
v 0.056733 0.736609 -0.252692
v -0.240324 0.736609 -0.156172
v -0.305621 0.736609 0.122948
v 0.056733 0.736609 0.252692
v 0.187145 0.736609 -0.020630
v -0.036354 -1.313213 0.000000
v -0.036354 1.313213 0.000000
vt 0.941382 0.529934
vt 0.632262 0.479587
vt 0.488855 0.758020
vt 0.709345 0.980448
vt 0.989023 0.839483
vt 0.019758 0.098821
vt 0.208615 0.039533
vt 0.405021 0.014894
vt 0.602947 0.017637
vt 0.797530 0.053963
vt 0.978560 0.134030
vt 0.145548 0.415120
vt 0.277352 0.373743
vt 0.402747 0.355022
vt 0.572966 0.356709
vt 0.703895 0.384963
vt 0.812244 0.431028
vt 0.028824 0.939791
vt 0.414640 0.974872
vt 0.493664 0.684872
vt 0.247340 0.476577
vt 0.010888 0.623497
vt 0.752173 0.717494
vt 0.231852 0.744115
vn -0.308215 0.071984 -0.948589
vn -0.308215 0.071984 -0.948589
vn -0.308215 0.071984 -0.948589
vn -0.308215 0.071984 -0.948589
vn -0.994639 0.052021 -0.089375
vn -0.994639 0.052021 -0.089375
vn -0.994639 0.052021 -0.089375
vn -0.994639 0.052021 -0.089375
vn -0.321107 0.075954 0.943992
vn -0.321107 0.075954 0.943992
vn -0.321107 0.075954 0.943992
vn -0.321107 0.075954 0.943992
vn 0.847241 0.083147 0.524661
vn 0.847241 0.083147 0.524661
vn 0.847241 0.083147 0.524661
vn 0.847241 0.083147 0.524661
vn 0.831403 0.074831 -0.550608
vn 0.831403 0.074831 -0.550608
vn 0.831403 0.074831 -0.550608
vn 0.831403 0.074831 -0.550608
vn -0.283715 -0.396297 -0.873186
vn -0.283715 -0.396297 -0.873186
vn -0.283715 -0.396297 -0.873186
vn -0.918122 -0.396297 0.000000
vn -0.918122 -0.396297 0.000000
vn -0.918122 -0.396297 0.000000
vn -0.283715 -0.396297 0.873186
vn -0.283715 -0.396297 0.873186
vn -0.283715 -0.396297 0.873186
vn 0.742777 -0.396297 0.539659
vn 0.742777 -0.396297 0.539659
vn 0.742777 -0.396297 0.539659
vn 0.742777 -0.396297 -0.539659
vn 0.742777 -0.396297 -0.539659
vn 0.742777 -0.396297 -0.539659
vn -0.290107 0.344452 -0.892856
vn -0.290106 0.344452 -0.892856
vn -0.290106 0.344452 -0.892856
vn -0.902145 0.376289 -0.211044
vn -0.902146 0.376290 -0.211044
vn -0.902146 0.376289 -0.211044
vn -0.317360 0.337193 0.886332
vn -0.317360 0.337193 0.886332
vn -0.317360 0.337193 0.886332
vn 0.855933 0.317160 0.408399
vn 0.855933 0.317160 0.408399
vn 0.855933 0.317160 0.408399
vn 0.821427 0.334912 -0.461619
vn 0.821427 0.334912 -0.461619
vn 0.821427 0.334912 -0.461619
s off
f 1/6/1 2/7/2 7/13/3 6/12/4
f 2/7/5 3/8/6 8/14/7 7/13/8
f 3/8/9 4/9/10 9/15/11 8/14/12
f 4/9/13 5/10/14 10/16/15 9/15/16
f 5/10/17 1/11/18 6/17/19 10/16/20
f 2/2/21 1/1/22 11/23/23
f 3/3/24 2/2/25 11/23/26
f 4/4/27 3/3/28 11/23/29
f 5/5/30 4/4/31 11/23/32
f 1/1/33 5/5/34 11/23/35
f 6/21/36 7/20/37 12/24/38
f 7/20/39 8/19/40 12/24/41
f 8/19/42 9/18/43 12/24/44
f 9/18/45 10/22/46 12/24/47
f 10/22/48 6/21/49 12/24/50
