# This file uses centimeters as units for non-parametric coordinates.

mtllib Grass.mtl
g default
v 0.500000 0.000000 0.000000
v -0.500000 0.000000 0.000000
v 0.500000 1.000000 0.000000
v -0.500000 1.000000 0.000000
v 0.353553 0.000000 -0.353553
v -0.353553 0.000000 0.353553
v 0.353553 1.000000 -0.353553
v -0.353553 1.000000 0.353553
v 0.000000 0.000000 0.500000
v 0.000000 0.000000 -0.500000
v 0.000000 1.000000 0.500000
v 0.000000 1.000000 -0.500000
v -0.353553 0.000000 -0.353553
v 0.353553 0.000000 0.353553
v -0.353553 1.000000 -0.353553
v 0.353553 1.000000 0.353553
vt 0.000000 0.000000
vt 1.000000 0.000000
vt 1.000000 1.000000
vt 0.000000 1.000000
vt 0.000000 0.000000
vt 1.000000 0.000000
vt 1.000000 1.000000
vt 0.000000 1.000000
vt 0.000000 0.000000
vt 1.000000 0.000000
vt 1.000000 1.000000
vt 0.000000 1.000000
vt 0.000000 0.000000
vt 1.000000 0.000000
vt 1.000000 1.000000
vt 0.000000 1.000000
vn 0.000000 0.000000 -1.000000
vn 0.000000 0.000000 -1.000000
vn 0.000000 0.000000 -1.000000
vn 0.000000 0.000000 -1.000000
vn -0.707107 0.000000 -0.707107
vn -0.707107 0.000000 -0.707107
vn -0.707107 0.000000 -0.707107
vn -0.707107 0.000000 -0.707107
vn 1.000000 0.000000 0.000000
vn 1.000000 0.000000 0.000000
vn 1.000000 0.000000 0.000000
vn 1.000000 0.000000 0.000000
vn -0.707107 0.000000 0.707107
vn -0.707107 0.000000 0.707107
vn -0.707107 0.000000 0.707107
vn -0.707107 0.000000 0.707107
s off
g Grass:pPlane5
usemtl Grass:initialShadingGroup
f 1/1/1 2/2/2 4/3/3 3/4/4
f 5/5/5 6/6/6 8/7/7 7/8/8
f 9/9/9 10/10/10 12/11/11 11/12/12
f 13/13/13 14/14/14 16/15/15 15/16/16
