# This file uses centimeters as units for non-parametric coordinates.

mtllib MineIslandMountains.mtl
g default
v 4.275290 -21.275354 -34.460018
v 20.058546 -19.991530 -40.500134
v 6.401197 8.930947 -38.047573
v 14.835226 9.187447 -41.000835
v 3.756002 9.573039 -43.564075
v 12.517927 8.803685 -44.882946
v 0.260801 -21.315239 -44.950626
v 16.845381 -18.679354 -50.908497
v 11.067930 -20.416719 -37.100124
v 6.937536 -21.133473 -47.294308
v 7.428900 9.432919 -44.511105
v 10.316481 8.584855 -39.542049
v -3.073191 -22.756297 -46.003796
v 5.415617 -22.513991 -49.030193
v 10.635214 -21.797240 -35.978756
v 2.020193 -22.756297 -32.642620
v 1.295240 11.238366 -44.941448
v 5.883757 11.349511 -46.596615
v 4.859915 10.834889 -36.484325
v 10.017675 10.168038 -38.489925
v 5.460806 0.783719 -36.861507
v 3.845999 1.558148 -35.289547
v 9.503942 1.753212 -37.446392
v 9.897367 0.936677 -38.552761
v 15.927900 1.144549 -40.851406
v 14.181448 0.859238 -46.470394
v 7.248304 0.919888 -45.562969
v 5.709585 1.753109 -47.400265
v 0.051298 1.558148 -45.243954
v 2.755316 0.783719 -43.958683
v -0.824068 -15.729524 -27.272274
v 9.149664 -16.499656 -32.466900
v -4.205194 21.828976 -32.346905
v 2.846487 22.147458 -36.201427
v -8.771425 23.374074 -41.545681
v -2.755342 23.046177 -45.388592
v -17.386759 -16.629058 -43.436344
v -1.297434 -16.629058 -51.688419
v 11.339674 -21.496253 -50.513363
v 11.097395 -21.852077 -42.069958
v 7.098318 17.662331 -46.645267
v 6.978071 17.485737 -42.454830
v -3.750307 11.185467 -28.009655
v 4.683065 10.151009 -34.693218
v 8.286451 4.991024 -42.332592
v 8.445501 5.224549 -47.873882
v -2.059015 10.648785 -47.045063
v -11.949007 10.932763 -42.726223
v -16.921534 -12.978431 -25.253963
v -7.400560 7.135952 -23.983715
v -11.633677 7.487683 -27.346142
v -1.670038 -16.318985 -22.442883
v -3.566622 8.643763 -25.602367
v -5.628771 5.891507 -22.375546
v -4.160143 -12.626001 -19.131451
v -0.897676 -0.691860 -28.285717
v 6.759512 -0.568710 -33.835201
v 9.273260 -4.432488 -42.240398
v 9.461538 -4.156029 -48.800503
v -2.214563 0.749625 -49.057728
v -14.967508 0.421643 -43.186710
v -14.728144 -0.763835 -24.984707
v -5.162958 0.316086 -20.587536
v -2.619585 -0.615921 -23.920635
v -17.213709 -15.271177 -36.673260
v -2.843340 -14.998897 -20.873547
v -3.791506 -0.383880 -22.284313
v -4.561808 8.375123 -24.367931
v -6.421228 9.566716 -25.720669
v -13.084520 9.750803 -36.364956
v -16.132402 -1.433280 -36.181393
v -9.156191 -4.129870 -12.050259
v -5.419367 -3.674846 -12.999615
v -6.056849 3.765248 -15.151180
v -9.132105 4.119128 -15.584286
v -3.715258 -3.292969 -13.719601
v -4.953798 2.396885 -16.433758
v -10.177729 -16.334453 -11.119076
v -5.106981 -16.384971 -13.104107
v -2.753496 -16.055015 -12.766811
vt 0.568591 0.777275
vt 0.438070 0.768006
vt 0.462184 0.673450
vt 0.554707 0.719350
vt 0.663937 0.712185
vt 0.595308 0.689763
vt 0.517885 0.603118
vt 0.619026 0.562660
vt 0.788065 0.496456
vt 0.912068 0.465394
vt 0.919276 0.597009
vt 0.829728 0.632798
vt 0.795442 0.678056
vt 0.717885 0.717373
vt 0.657950 0.559454
vt 0.742605 0.518090
vt 0.954915 0.631237
vt 0.582738 0.796597
vt 0.418969 0.883013
vt 0.445254 0.790352
vt 0.841089 0.120612
vt 0.670311 0.159234
vt 0.610543 0.132228
vt 0.867153 0.068898
vt 0.087172 0.651519
vt 0.115399 0.642008
vt 0.179322 0.490702
vt 0.311487 0.354385
vt 0.454754 0.239187
vt 0.476913 0.200229
vt 0.330484 0.418520
vt 0.458335 0.446101
vt 0.415461 0.562324
vt 0.348342 0.543727
vt 0.432239 0.674428
vt 0.435938 0.759009
vt 0.588689 0.656009
vt 0.604775 0.775088
vt 0.570652 0.467707
vt 0.610031 0.518632
vt 0.512069 0.584232
vt 0.486328 0.558225
vt 0.443057 0.305405
vt 0.538944 0.359814
vt 0.645978 0.400809
vt 0.694488 0.463480
vt 0.695523 0.613623
vt 0.735689 0.766770
vt 0.264243 0.170376
vt 0.305664 0.179115
vt 0.297429 0.254622
vt 0.268313 0.259749
vt 0.357442 0.263412
vt 0.379615 0.268801
vt 0.319844 0.363511
vt 0.313986 0.326755
vt 0.299667 0.384188
vt 0.626259 0.848665
vt 0.228819 0.383277
vt 0.288260 0.350803
vt 0.762923 0.844678
vt 0.142812 0.282463
vt 0.399483 0.277925
vt 0.333389 0.375871
vt 0.324589 0.186605
vt 0.315432 0.251583
vt 0.538418 0.154229
vt 0.663086 0.223341
vt 0.795245 0.271369
vt 0.859064 0.355263
vt 0.879302 0.525176
vt 0.931487 0.739893
vt 0.922185 0.822139
vt 0.905049 0.958521
vt 0.258770 0.038608
vt 0.330447 0.044635
vt 0.360466 0.054099
vt 0.463406 0.116017
vt 0.425554 0.125920
vt 0.492212 0.115245
vt 0.077419 0.134807
vt 0.192399 0.498060
vt 0.654307 0.954531
vt 0.760238 0.974065
vt 0.185780 0.580132
vt 0.330525 0.656897
vt 0.952632 0.466935
vt 0.602014 0.880914
vt 0.023467 0.788499
vt 0.752627 0.792011
vn 0.328767 0.082388 0.940811
vn 0.346302 0.083149 0.934431
vn 0.346483 0.083157 0.934363
vn 0.328767 0.082388 0.940811
vn 0.011469 0.998891 0.045655
vn 0.011469 0.998892 0.045655
vn 0.011469 0.998891 0.045655
vn 0.011469 0.998891 0.045655
vn -0.243930 0.130233 -0.961009
vn -0.236595 0.131261 -0.962701
vn -0.096159 0.149161 -0.984126
vn -0.096159 0.149161 -0.984126
vn 0.934697 0.186651 -0.302494
vn 0.935973 0.186457 -0.298644
vn 0.897671 0.190499 -0.397362
vn 0.897671 0.190499 -0.397362
vn -0.828511 0.077256 0.554618
vn -0.990848 0.074017 0.112884
vn -0.989864 -0.088698 0.110914
vn -0.812988 -0.130579 0.567450
vn -0.349613 0.079289 -0.933533
vn -0.349613 0.079289 -0.933533
vn -0.346095 0.072366 -0.935404
vn -0.345940 0.072062 -0.935485
vn 0.078760 0.995169 0.058619
vn 0.078760 0.995169 0.058619
vn 0.078760 0.995169 0.058619
vn 0.078760 0.995169 0.058619
vn 0.354414 0.077156 0.931900
vn 0.354816 0.077704 0.931701
vn 0.361109 0.086294 0.928523
vn 0.361109 0.086294 0.928523
vn -0.975310 0.210717 0.066095
vn -0.798324 0.220274 0.560498
vn -0.462714 0.353790 0.812852
vn -0.735083 0.528476 -0.424695
vn 0.833600 0.162566 -0.527905
vn 0.767290 0.039507 -0.640083
vn 0.773605 0.040627 -0.632365
vn 0.820394 0.108893 -0.561334
vn -0.389610 0.012475 0.920896
vn -0.581702 -0.250022 0.774023
vn 0.985389 0.166497 -0.035890
vn 0.954161 0.235242 -0.185034
vn -0.832644 -0.495045 -0.248262
vn 0.938359 0.033164 0.344069
vn 0.932904 0.056726 0.355630
vn -0.672838 -0.032307 -0.739084
vn 0.352866 0.075053 0.932659
vn 0.352866 0.075053 0.932659
vn 0.929211 0.071215 0.362622
vn 0.929211 0.071215 0.362622
vn 0.350404 0.083324 0.932885
vn 0.350404 0.083324 0.932885
vn 0.942027 0.185459 -0.279626
vn 0.942027 0.185459 -0.279626
vn -0.273895 0.125936 -0.953479
vn -0.273895 0.125936 -0.953479
vn 0.756089 0.037543 -0.653392
vn 0.756089 0.037543 -0.653392
vn -0.345052 0.070320 -0.935946
vn -0.345052 0.070320 -0.935946
vn 0.577394 0.208959 0.789273
vn 0.581785 0.199795 0.788421
vn 0.551397 0.260438 0.792549
vn 0.551397 0.260438 0.792549
vn 0.059200 0.993296 0.099287
vn 0.259085 0.965853 -0.001736
vn 0.248523 0.968619 0.003772
vn 0.059200 0.993296 0.099287
vn -0.447237 0.145474 -0.882506
vn -0.297238 0.135369 -0.945159
vn -0.224536 0.145946 -0.963475
vn -0.583941 0.200390 -0.786675
vn 0.993989 0.104409 0.032928
vn 0.993989 0.104409 0.032928
vn 0.993989 0.104409 0.032927
vn 0.993989 0.104409 0.032927
vn -0.866102 0.166597 0.471289
vn -0.866102 0.166597 0.471289
vn -0.866102 0.166597 0.471289
vn -0.866102 0.166597 0.471289
vn 0.015435 0.138724 -0.990211
vn -0.042323 0.111853 -0.992823
vn 0.523704 0.839096 -0.147144
vn 0.523704 0.839096 -0.147144
vn 0.904235 0.142905 0.402416
vn 0.919779 0.147581 0.363629
vn 0.935683 0.152650 0.318113
vn 0.904235 0.142905 0.402416
vn 0.603634 0.151827 0.782671
vn 0.603634 0.151827 0.782671
vn 0.948971 0.157210 0.273386
vn 0.948971 0.157210 0.273386
vn 0.993989 0.104410 0.032929
vn 0.993989 0.104410 0.032929
vn 0.045602 0.152545 -0.987244
vn -0.178798 0.166361 -0.969719
vn -0.746777 0.246337 -0.617772
vn 0.065951 0.342245 0.937293
vn 0.218641 0.356690 0.908278
vn 0.186498 0.354338 0.916332
vn 0.065951 0.342245 0.937293
vn 0.756815 0.230464 0.611651
vn 0.770266 0.212875 0.601144
vn 0.775679 0.205583 0.596705
vn 0.756815 0.230464 0.611651
vn -0.323061 0.891435 0.317766
vn -0.313701 0.929724 0.192887
vn -0.359462 0.857668 0.367685
vn -0.165260 0.903411 0.395650
vn -0.954857 0.295647 0.028994
vn -0.951940 0.300747 0.057976
vn -0.909224 0.307737 0.280375
vn -0.920598 0.311435 0.235601
vn 0.940809 0.187883 0.282095
vn 0.940809 0.187883 0.282095
vn 0.940809 0.187883 0.282095
vn 0.940809 0.187883 0.282095
vn -0.016222 0.701162 0.712817
vn 0.522211 0.768419 0.369902
vn 0.622413 0.348621 0.700761
vn 0.622413 0.348621 0.700761
vn 0.520266 0.106558 0.847331
vn 0.520266 0.106558 0.847331
vn 0.520266 0.106558 0.847331
vn 0.520266 0.106558 0.847331
vn 0.975849 0.131364 0.174534
vn 0.975849 0.131364 0.174534
vn 0.975849 0.131364 0.174534
vn 0.975849 0.131364 0.174534
vn 0.993989 0.104409 0.032925
vn 0.993989 0.104409 0.032925
vn 0.993989 0.104409 0.032925
vn 0.993989 0.104409 0.032925
vn -0.169055 0.117832 -0.978538
vn -0.262630 0.110742 -0.958521
vn 0.111154 0.132176 -0.984974
vn 0.111154 0.132176 -0.984974
vn -0.621153 0.108344 -0.776164
vn -0.651454 0.110437 -0.750607
vn -0.953959 0.128703 0.270920
vn -0.992869 0.119167 0.003213
vn -0.992926 0.118668 -0.003897
vn -0.954900 0.128656 0.267608
vn 0.315076 0.022513 0.948799
vn 0.248010 0.027181 0.968376
vn 0.237057 0.027923 0.971094
vn 0.315076 0.022513 0.948799
vn 0.087305 0.037519 0.995475
vn 0.087305 0.037519 0.995475
vn 0.827182 0.107495 0.551557
vn 0.828297 0.110614 0.549261
vn 0.830029 0.115527 0.545623
vn 0.830029 0.115527 0.545623
vn 0.960953 0.053978 0.271395
vn 0.960953 0.053978 0.271395
vn 0.960953 0.053978 0.271395
vn 0.960953 0.053978 0.271395
vn 0.826086 0.104468 0.553776
vn 0.826086 0.104468 0.553776
vn 0.781074 0.198186 0.592153
vn 0.781074 0.198186 0.592153
vn -0.275000 0.940632 0.198963
vn 0.216228 0.749051 0.626233
vn -0.298662 0.938643 0.172483
vn -0.076672 0.943290 0.322996
vn 0.140575 0.936440 0.321433
vn -0.880243 0.298235 0.369090
vn -0.880243 0.298235 0.369090
vn 0.988699 0.108054 -0.103914
vn 0.988699 0.108054 -0.103914
vn 0.988699 0.108054 -0.103914
vn 0.988699 0.108054 -0.103914
vn 0.634965 0.730109 0.252507
vn -0.890141 0.129039 0.437032
vn -0.890142 0.129039 0.437032
vn 0.981788 0.058087 -0.180883
vn 0.981788 0.058087 -0.180883
vn 0.981788 0.058087 -0.180883
vn 0.981788 0.058087 -0.180883
s 1
g pCube35
usemtl initialShadingGroup
f 12/1/1 24/2/2 25/3/3 4/4/4
s off
f 11/5/5 12/1/6 4/4/7 6/6/8
s 2
f 26/7/9 27/8/10 11/5/11 6/6/12
s 3
f 25/3/13 26/7/14 6/6/15 4/4/16
s 4
f 30/9/17 21/10/18 3/11/19 5/12/20
s 5
f 17/13/21 18/14/22 28/15/23 29/16/24
s off
f 19/88/25 20/18/26 18/14/27 17/90/28
s 6
f 22/19/29 23/20/30 20/18/31 19/88/32
s 4
f 1/21/33 7/22/34 13/23/35 16/24/36
s 7
f 11/5/37 27/8/38 28/15/39 18/14/40
s 4
f 29/16/41 30/9/17 5/12/20 17/13/42
s 7
f 12/1/43 11/5/37 18/14/40 20/18/44
s 4
f 5/12/20 3/11/19 19/17/45 17/13/42
s 7
f 23/20/46 24/2/47 12/1/43 20/18/44
s 4
f 3/11/19 21/10/18 22/87/48 19/17/45
f 22/87/48 21/10/18 1/21/33 16/24/36
s 6
f 16/89/49 15/25/50 23/20/30 22/19/29
s 7
f 9/26/51 24/2/47 23/20/46 15/25/52
s 1
f 25/3/3 24/2/2 9/26/53 2/27/54
s 3
f 2/27/55 8/28/56 26/7/14 25/3/13
s 2
f 10/29/57 27/8/10 26/7/9 8/28/58
s 7
f 28/15/39 27/8/38 10/29/59 14/30/60
s 5
f 29/16/24 28/15/23 14/30/61 13/23/62
s 4
f 7/22/34 30/9/17 29/16/41 13/23/35
f 7/22/34 1/21/33 21/10/18 30/9/17
s 8
f 43/31/63 44/32/64 34/33/65 33/34/66
s 9
f 33/34/67 34/33/68 36/35/69 35/86/70
s 10
f 35/36/71 36/35/72 47/37/73 48/38/74
s 11
f 45/39/75 46/40/76 41/41/77 42/42/78
s off
f 48/85/79 43/31/80 33/34/81 35/86/82
s 10
f 46/40/83 47/37/73 36/35/72 41/41/84
s 9
f 36/35/69 34/33/68 42/42/85 41/41/86
s 12
f 34/33/87 44/32/88 45/39/89 42/42/90
s 8
f 56/43/91 57/44/92 44/32/64 43/31/63
s 12
f 45/39/89 44/32/88 57/44/93 58/45/94
s 11
f 58/45/95 59/46/96 46/40/76 45/39/75
s 10
f 59/46/97 60/47/98 47/37/73 46/40/83
f 48/38/74 47/37/73 60/47/98 61/48/99
s 13
f 72/49/100 73/50/101 74/51/102 75/52/103
s 14
f 63/53/104 67/54/105 68/55/106 54/56/107
s 15
f 69/57/108 70/82/109 51/59/110 50/60/111
s 10
f 70/58/112 71/61/113 62/84/114 51/83/115
s off
f 64/63/116 56/43/117 43/31/118 53/64/119
s 15
f 68/55/120 69/57/108 50/60/111 54/56/121
s 13
f 74/51/102 73/50/101 76/65/122 77/66/123
s off
f 31/67/124 32/68/125 57/44/126 56/43/127
f 58/45/128 57/44/129 32/68/130 40/69/131
f 40/69/132 39/70/133 59/46/134 58/45/135
s 16
f 38/71/136 60/47/137 59/46/138 39/70/139
f 61/48/140 60/47/137 38/71/136 37/72/141
f 62/84/142 71/61/143 65/73/144 49/74/145
s 17
f 78/75/146 79/76/147 73/50/148 72/49/149
f 76/65/150 73/50/148 79/76/147 80/77/151
s 18
f 66/78/152 67/54/153 63/53/154 55/79/155
s off
f 31/67/156 56/43/157 64/63/158 52/80/159
s 18
f 52/80/160 64/63/161 67/54/153 66/78/152
s 14
f 68/55/106 67/54/105 64/63/162 53/64/163
s 15
f 43/31/164 69/57/108 68/55/120 53/64/165
f 43/31/164 48/85/166 70/82/109 69/57/108
s 10
f 48/38/74 61/48/99 71/61/113 70/58/112
s 16
f 65/73/144 71/61/143 61/48/140 37/72/141
s 15
f 50/60/111 51/59/110 75/52/167 74/51/168
s 10
f 51/59/115 62/62/114 72/49/169 75/52/170
s off
f 63/53/171 54/56/172 77/66/173 76/65/174
s 15
f 54/56/121 50/60/111 74/51/168 77/66/175
s 16
f 62/62/142 49/81/145 78/75/176 72/49/177
s off
f 55/79/178 63/53/179 76/65/180 80/77/181
