# This file uses centimeters as units for non-parametric coordinates.

mtllib island1entrance.mtl
g default
v -1.215850 -0.000000 4.279678
v 1.215862 -0.000000 4.279692
v -1.215850 2.957218 4.279678
v 1.215862 2.957218 4.279692
v -1.215869 2.957218 0.709225
v 1.215842 2.957218 0.709225
v -1.215869 -0.000000 0.709225
v 1.215842 -0.000000 0.709225
v -2.083995 3.340286 4.279624
v 2.084024 3.340286 4.279624
v 4.537302 -0.000000 0.709238
v 2.952169 -0.000000 4.279624
v -4.537301 -0.000000 0.709238
v -2.952140 -0.000000 4.279666
v -1.747787 14.649109 2.040473
v -0.101774 14.636916 2.535457
v 0.646503 16.104387 0.614744
v -1.735301 16.104387 0.614769
v 2.048411 14.628862 0.614769
v 1.473268 14.628862 1.570401
v -3.137219 16.104357 0.614769
v -2.092334 14.651620 1.936972
v -1.527587 7.762679 3.344519
v 0.684035 7.741342 4.047645
v 3.358180 7.760372 2.614193
v 4.537302 7.760372 0.709238
v -4.537301 7.760372 0.709238
v -2.796356 7.767091 3.001075
v -1.215906 2.472110 -4.400848
v 1.215814 2.472086 -4.400862
v 1.215823 -0.000037 -4.400848
v 4.537320 -0.000018 -4.400838
v -1.215906 0.000011 -4.400848
v -4.537320 0.000005 -4.400821
v -1.735338 16.046541 -4.494981
v 0.633053 16.040278 -4.494899
v 4.523916 7.725186 -4.400576
v 2.021584 14.558489 -4.494732
v -4.537320 7.731450 -4.400671
v -3.137247 16.046511 -4.494964
vt 0.732253 0.297461
vt 0.686652 0.269799
vt 0.712577 0.199015
vt 0.779311 0.232845
vt 0.533790 0.535602
vt 0.533790 0.535602
vt 0.653056 0.222939
vt 0.649235 0.191183
vt 0.805379 0.259679
vt 0.740239 0.305221
vt 0.459417 0.681934
vt 0.335617 0.581107
vt 0.310910 0.527807
vt 0.516948 0.696354
vt 0.190509 0.564986
vt 0.173130 0.518751
vt 0.503513 0.819926
vt 0.544522 0.827670
vt 0.361534 0.769909
vt 0.275025 0.692613
vt 0.447091 0.853059
vt 0.171639 0.631494
vt 0.576981 0.518313
vt 0.495564 0.466564
vt 0.426552 0.371733
vt 0.408799 0.293629
vt 0.731727 0.554412
vt 0.622234 0.547751
vt 0.119268 0.373512
vt 0.695715 0.855775
vt 0.150443 0.803952
vt 0.069671 0.735395
vt 0.372891 0.979559
vt 0.287979 0.918877
vt 0.781671 0.070372
vt 0.883019 0.148683
vt 0.533790 0.535602
vt 0.533790 0.535602
vt 0.676515 0.045969
vt 0.390850 0.140126
vt 0.936899 0.210436
vt 0.885831 0.552489
vt 0.099179 0.209589
vt 0.859673 0.854136
vn -0.077068 0.759549 0.645868
vn -0.077068 0.759549 0.645868
vn -0.077068 0.759549 0.645868
vn -0.077068 0.759549 0.645868
vn 0.507378 0.650408 0.565276
vn 0.507378 0.650408 0.565276
vn 0.507378 0.650408 0.565276
vn 0.507378 0.650408 0.565276
vn -0.042516 0.678178 0.733667
vn -0.042516 0.678178 0.733667
vn -0.042516 0.678178 0.733667
vn -0.042516 0.678178 0.733667
vn -0.000018 0.000054 1.000000
vn 0.000036 0.000052 1.000000
vn 0.000047 0.000019 1.000000
vn -0.000022 0.000022 1.000000
vn 0.000051 0.000007 1.000000
vn 0.000051 0.000007 1.000000
vn -0.000024 0.000010 1.000000
vn -0.000024 0.000010 1.000000
vn -0.000003 -0.998442 0.055799
vn -0.000003 -0.998442 0.055799
vn 0.000000 -1.000000 0.000000
vn 0.000000 -1.000000 0.000000
vn 1.000000 0.000000 -0.000005
vn 1.000000 0.000000 -0.000006
vn 1.000000 0.000000 -0.000006
vn 1.000000 0.000000 -0.000005
vn -1.000000 0.000000 0.000006
vn -1.000000 0.000000 0.000006
vn -1.000000 -0.000001 0.000005
vn -1.000000 -0.000001 0.000005
vn -0.199683 0.146093 0.968909
vn -0.186947 0.142528 0.971976
vn -0.290873 0.171121 0.941334
vn -0.290873 0.171121 0.941334
vn 0.874341 0.117342 0.470913
vn 0.977061 0.154832 0.146215
vn 0.813143 0.300222 0.498663
vn 0.813143 0.300222 0.498663
vn 0.486182 0.222473 0.845064
vn 0.488255 0.217147 0.845254
vn 0.475594 0.248957 0.843700
vn 0.475594 0.248957 0.843700
vn -0.976578 0.091322 0.194821
vn -0.827142 0.090782 0.554613
vn -0.752240 0.152699 0.640950
vn -0.752240 0.152699 0.640950
vn -0.356171 0.180360 0.916849
vn -0.353106 0.180127 0.918080
vn -0.262290 0.172489 0.949448
vn -0.262290 0.172489 0.949448
vn -0.108360 0.120168 0.986822
vn -0.108360 0.120168 0.986822
vn 0.504651 0.173202 0.845771
vn 0.504651 0.173202 0.845771
vn 0.892408 0.024999 0.450537
vn 0.984891 0.010194 0.172876
vn -0.979017 0.020282 0.202766
vn -0.868724 0.049298 0.492836
vn -0.431508 0.185538 0.882823
vn -0.431508 0.185538 0.882823
vn -0.000005 -0.995524 0.094509
vn -0.000005 -0.995524 0.094509
vn -1.000000 -0.000002 0.000005
vn -1.000000 -0.000002 0.000005
vn 1.000000 0.000000 -0.000007
vn 1.000000 0.000000 -0.000007
vn 0.000821 0.999931 -0.011706
vn 0.001319 0.999928 -0.011935
vn 0.001319 0.999928 -0.011935
vn 0.000821 0.999931 -0.011706
vn 0.727279 0.686239 -0.011897
vn 0.905732 0.423769 -0.008375
vn 0.906331 0.422486 -0.008357
vn 0.727279 0.686239 -0.011897
vn 0.985699 0.168463 -0.004238
vn -0.986168 0.165745 -0.001403
vn -0.986168 0.165745 -0.001403
vn -0.996248 0.086536 -0.000730
vn -0.000022 0.999936 -0.011320
vn -0.000022 0.999936 -0.011320
vn 0.999999 0.000866 -0.001311
vn -1.000000 0.000000 0.000004
s off
g pCube23 group1
usemtl initialShadingGroup
f 15/1/1 16/2/2 17/3/3 18/4/4
f 20/7/5 19/8/6 17/3/7 16/2/8
f 21/9/9 22/10/10 15/1/11 18/4/12
s 1
f 3/11/13 4/12/14 10/13/15 9/14/16
f 4/12/14 2/15/17 12/16/18 10/13/15
f 1/17/19 3/11/13 9/14/16 14/18/20
s 2
f 5/19/21 6/20/22 4/12/23 3/11/24
s 3
f 1/17/25 7/21/26 5/19/27 3/11/28
s 4
f 2/15/29 4/12/30 6/20/31 8/22/32
s 5
f 23/23/33 24/24/34 16/2/35 15/1/36
s 6
f 25/25/37 26/26/38 19/8/39 20/7/40
s 7
f 24/24/41 25/25/42 20/7/43 16/2/44
s 8
f 27/27/45 28/28/46 22/10/47 21/9/48
s 9
f 28/28/49 23/23/50 15/1/51 22/10/52
s 5
f 9/14/53 10/13/54 24/24/34 23/23/33
s 7
f 10/13/55 12/16/56 25/25/42 24/24/41
s 6
f 12/16/57 11/29/58 26/26/38 25/25/37
s 8
f 13/30/59 14/18/60 28/28/46 27/27/45
s 9
f 14/18/61 9/14/62 23/23/50 28/28/49
s 2
f 6/6/22 5/5/21 29/38/63 30/37/64
s 4
f 8/22/32 6/20/31 30/31/65 31/32/66
s 3
f 5/19/27 7/21/26 33/33/67 29/34/68
s 10
f 18/4/69 17/3/70 36/35/71 35/36/72
s 6
f 17/3/73 19/8/74 38/39/75 36/35/76
f 19/8/74 26/26/38 37/40/77 38/39/75
s 8
f 27/27/45 21/9/78 40/41/79 39/42/80
s 10
f 21/9/81 18/4/69 35/36/72 40/41/82
s 6
f 26/26/38 11/29/58 32/43/83 37/40/77
s 8
f 13/30/59 27/27/45 39/42/80 34/44/84
