# This file uses centimeters as units for non-parametric coordinates.

mtllib minenetrance.mtl
g default
v 1.075951 0.000001 -0.212966
v 1.215859 0.000001 -0.212966
v 1.075951 2.817313 -0.212966
v 1.215859 2.817313 -0.212966
v 1.075951 2.817313 -0.683837
v 1.215859 2.817313 -0.683837
v 1.075951 0.000001 -0.683837
v 1.215859 0.000001 -0.683837
v -1.215843 2.957218 -0.212966
v -1.215843 2.817313 -0.212966
v 1.215859 2.957218 -0.212966
v 1.215859 2.817313 -0.212966
v 1.215859 2.957218 -0.683837
v 1.215859 2.817313 -0.683837
v -1.215843 2.957218 -0.683837
v -1.215843 2.817313 -0.683837
v -1.215843 0.000001 -0.212966
v -1.075935 0.000001 -0.212966
v -1.215843 2.817313 -0.212966
v -1.075935 2.817313 -0.212966
v -1.215843 2.817313 -0.683837
v -1.075935 2.817313 -0.683837
v -1.215843 0.000001 -0.683837
v -1.075935 0.000001 -0.683837
v 1.075951 0.000001 1.293931
v 1.215859 0.000001 1.293931
v 1.075951 2.817313 1.293931
v 1.215859 2.817313 1.293931
v 1.075951 2.817313 0.823060
v 1.215859 2.817313 0.823060
v 1.075951 0.000001 0.823060
v 1.215859 0.000001 0.823060
v -1.215843 2.957218 1.293931
v -1.215843 2.817313 1.293931
v 1.215859 2.957218 1.293931
v 1.215859 2.817313 1.293931
v 1.215859 2.957218 0.823060
v 1.215859 2.817313 0.823060
v -1.215843 2.957218 0.823060
v -1.215843 2.817313 0.823060
v -1.215843 0.000001 1.293931
v -1.075935 0.000001 1.293931
v -1.215843 2.817313 1.293931
v -1.075935 2.817313 1.293931
v -1.215843 2.817313 0.823060
v -1.075935 2.817313 0.823060
v -1.215843 0.000001 0.823060
v -1.075935 0.000001 0.823060
v 1.075951 0.000001 2.888245
v 1.215859 0.000001 2.888245
v 1.075951 2.817313 2.888245
v 1.215859 2.817313 2.888245
v 1.075951 2.817313 2.417374
v 1.215859 2.817313 2.417374
v 1.075951 0.000001 2.417374
v 1.215859 0.000001 2.417374
v -1.215843 2.957218 2.888245
v -1.215843 2.817313 2.888245
v 1.215859 2.957218 2.888245
v 1.215859 2.817313 2.888245
v 1.215859 2.957218 2.417374
v 1.215859 2.817313 2.417374
v -1.215843 2.957218 2.417374
v -1.215843 2.817313 2.417374
v -1.215843 0.000001 2.888245
v -1.075935 0.000001 2.888245
v -1.215843 2.817313 2.888245
v -1.075935 2.817313 2.888245
v -1.215843 2.817313 2.417374
v -1.075935 2.817313 2.417374
v -1.215843 0.000001 2.417374
v -1.075935 0.000001 2.417374
v 1.075951 0.000001 4.494981
v 1.215859 0.000001 4.494981
v 1.075951 2.817313 4.494981
v 1.215859 2.817313 4.494981
v 1.075951 2.817313 4.024110
v 1.215859 2.817313 4.024110
v 1.075951 0.000001 4.024110
v 1.215859 0.000001 4.024110
v -1.215843 2.957218 4.494981
v -1.215843 2.817313 4.494981
v 1.215859 2.957218 4.494981
v 1.215859 2.817313 4.494981
v 1.215859 2.957218 4.024110
v 1.215859 2.817313 4.024110
v -1.215843 2.957218 4.024110
v -1.215843 2.817313 4.024110
v -1.215843 0.000001 4.494981
v -1.075935 0.000001 4.494981
v -1.215843 2.817313 4.494981
v -1.075935 2.817313 4.494981
v -1.215843 2.817313 4.024110
v -1.075935 2.817313 4.024110
v -1.215843 0.000001 4.024110
v -1.075935 0.000001 4.024110
vt 0.401765 0.034549
vt 0.557353 0.034549
vt 0.557353 0.965451
vt 0.401765 0.965451
vt 0.401765 0.034549
vt 0.557353 0.034549
vt 0.557353 0.965451
vt 0.401765 0.965451
vt 0.502673 0.577794
vt 0.456444 0.577794
vt 0.456444 0.422206
vt 0.502673 0.422206
vt 0.502673 0.577794
vt 0.456444 0.577794
vt 0.456444 0.422206
vt 0.502673 0.422206
vt 0.401765 0.034549
vt 0.557353 0.034549
vt 0.557353 0.965451
vt 0.401765 0.965451
vt 0.401765 0.034549
vt 0.557353 0.034549
vt 0.557353 0.965451
vt 0.401765 0.965451
vt 0.401765 0.034549
vt 0.557353 0.034549
vt 0.557353 0.965451
vt 0.401765 0.965451
vt 0.401765 0.034549
vt 0.557353 0.034549
vt 0.557353 0.965451
vt 0.401765 0.965451
vt 0.502673 0.577794
vt 0.456444 0.577794
vt 0.456444 0.422206
vt 0.502673 0.422206
vt 0.502673 0.577794
vt 0.456444 0.577794
vt 0.456444 0.422206
vt 0.502673 0.422206
vt 0.401765 0.034549
vt 0.557353 0.034549
vt 0.557353 0.965451
vt 0.401765 0.965451
vt 0.401765 0.034549
vt 0.557353 0.034549
vt 0.557353 0.965451
vt 0.401765 0.965451
vt 0.401767 0.034549
vt 0.557351 0.034549
vt 0.557351 0.965451
vt 0.401767 0.965451
vt 0.401767 0.034549
vt 0.557351 0.034549
vt 0.557351 0.965451
vt 0.401767 0.965451
vt 0.502673 0.577792
vt 0.456444 0.577792
vt 0.456444 0.422208
vt 0.502673 0.422208
vt 0.502673 0.577792
vt 0.456444 0.577792
vt 0.456444 0.422208
vt 0.502673 0.422208
vt 0.401767 0.034549
vt 0.557351 0.034549
vt 0.557351 0.965451
vt 0.401767 0.965451
vt 0.401767 0.034549
vt 0.557351 0.034549
vt 0.557351 0.965451
vt 0.401767 0.965451
vt 0.401767 0.034549
vt 0.557351 0.034549
vt 0.557351 0.965451
vt 0.401767 0.965451
vt 0.401767 0.034549
vt 0.557351 0.034549
vt 0.557351 0.965451
vt 0.401767 0.965451
vt 0.502673 0.577792
vt 0.456444 0.577792
vt 0.456444 0.422208
vt 0.502673 0.422208
vt 0.502673 0.577792
vt 0.456444 0.577792
vt 0.456444 0.422208
vt 0.502673 0.422208
vt 0.401767 0.034549
vt 0.557351 0.034549
vt 0.557351 0.965451
vt 0.401767 0.965451
vt 0.401767 0.034549
vt 0.557351 0.034549
vt 0.557351 0.965451
vt 0.401767 0.965451
vt 0.456444 0.422206
vt 0.502673 0.422206
vt 0.502673 0.577794
vt 0.456444 0.577794
vt 0.456444 0.422206
vt 0.502673 0.422206
vt 0.502673 0.577794
vt 0.456444 0.577794
vt 0.557353 0.901743
vt 0.401765 0.901743
vt 0.401765 0.098257
vt 0.557353 0.098257
vt 0.557353 0.901743
vt 0.401765 0.901743
vt 0.401765 0.098257
vt 0.557353 0.098257
vt 0.456446 0.422206
vt 0.502672 0.422206
vt 0.502672 0.577794
vt 0.456446 0.577794
vt 0.456446 0.422206
vt 0.502672 0.422206
vt 0.502672 0.577794
vt 0.456446 0.577794
vt 0.456444 0.422206
vt 0.502673 0.422206
vt 0.502673 0.577794
vt 0.456444 0.577794
vt 0.456444 0.422206
vt 0.502673 0.422206
vt 0.502673 0.577794
vt 0.456444 0.577794
vt 0.557353 0.901743
vt 0.401765 0.901743
vt 0.401765 0.098257
vt 0.557353 0.098257
vt 0.557353 0.901743
vt 0.401765 0.901743
vt 0.401765 0.098257
vt 0.557353 0.098257
vt 0.456446 0.422206
vt 0.502672 0.422206
vt 0.502672 0.577794
vt 0.456446 0.577794
vt 0.456446 0.422206
vt 0.502672 0.422206
vt 0.502672 0.577794
vt 0.456446 0.577794
vt 0.456444 0.422208
vt 0.502673 0.422208
vt 0.502673 0.577792
vt 0.456444 0.577792
vt 0.456444 0.422208
vt 0.502673 0.422208
vt 0.502673 0.577792
vt 0.456444 0.577792
vt 0.557351 0.901743
vt 0.401767 0.901743
vt 0.401767 0.098257
vt 0.557351 0.098257
vt 0.557351 0.901743
vt 0.401767 0.901743
vt 0.401767 0.098257
vt 0.557351 0.098257
vt 0.456446 0.422208
vt 0.502672 0.422208
vt 0.502672 0.577792
vt 0.456446 0.577792
vt 0.456446 0.422208
vt 0.502672 0.422208
vt 0.502672 0.577792
vt 0.456446 0.577792
vt 0.456444 0.422208
vt 0.502673 0.422208
vt 0.502673 0.577792
vt 0.456444 0.577792
vt 0.456444 0.422208
vt 0.502673 0.422208
vt 0.502673 0.577792
vt 0.456444 0.577792
vt 0.557351 0.901743
vt 0.401767 0.901743
vt 0.401767 0.098257
vt 0.557351 0.098257
vt 0.557351 0.901743
vt 0.401767 0.901743
vt 0.401767 0.098257
vt 0.557351 0.098257
vt 0.456446 0.422208
vt 0.502672 0.422208
vt 0.502672 0.577792
vt 0.456446 0.577792
vt 0.456446 0.422208
vt 0.502672 0.422208
vt 0.502672 0.577792
vt 0.456446 0.577792
vt 0.456444 0.034549
vt 0.502673 0.034549
vt 0.502673 0.965451
vt 0.456444 0.965451
vt 0.456444 0.034549
vt 0.502673 0.034549
vt 0.502673 0.965451
vt 0.456444 0.965451
vt 0.502673 0.901743
vt 0.456444 0.901743
vt 0.456444 0.098257
vt 0.502673 0.098257
vt 0.456444 0.098257
vt 0.502673 0.098257
vt 0.502673 0.901743
vt 0.456444 0.901743
vt 0.456446 0.034549
vt 0.502672 0.034549
vt 0.502672 0.965451
vt 0.456446 0.965451
vt 0.456446 0.034549
vt 0.502672 0.034549
vt 0.502672 0.965451
vt 0.456446 0.965451
vt 0.456444 0.034549
vt 0.502673 0.034549
vt 0.502673 0.965451
vt 0.456444 0.965451
vt 0.456444 0.034549
vt 0.502673 0.034549
vt 0.502673 0.965451
vt 0.456444 0.965451
vt 0.502673 0.901743
vt 0.456444 0.901743
vt 0.456444 0.098257
vt 0.502673 0.098257
vt 0.456444 0.098257
vt 0.502673 0.098257
vt 0.502673 0.901743
vt 0.456444 0.901743
vt 0.456446 0.034549
vt 0.502672 0.034549
vt 0.502672 0.965451
vt 0.456446 0.965451
vt 0.456446 0.034549
vt 0.502672 0.034549
vt 0.502672 0.965451
vt 0.456446 0.965451
vt 0.456444 0.034549
vt 0.502673 0.034549
vt 0.502673 0.965451
vt 0.456444 0.965451
vt 0.456444 0.034549
vt 0.502673 0.034549
vt 0.502673 0.965451
vt 0.456444 0.965451
vt 0.502673 0.901743
vt 0.456444 0.901743
vt 0.456444 0.098257
vt 0.502673 0.098257
vt 0.456444 0.098257
vt 0.502673 0.098257
vt 0.502673 0.901743
vt 0.456444 0.901743
vt 0.456446 0.034549
vt 0.502672 0.034549
vt 0.502672 0.965451
vt 0.456446 0.965451
vt 0.456446 0.034549
vt 0.502672 0.034549
vt 0.502672 0.965451
vt 0.456446 0.965451
vt 0.456444 0.034549
vt 0.502673 0.034549
vt 0.502673 0.965451
vt 0.456444 0.965451
vt 0.456444 0.034549
vt 0.502673 0.034549
vt 0.502673 0.965451
vt 0.456444 0.965451
vt 0.502673 0.901743
vt 0.456444 0.901743
vt 0.456444 0.098257
vt 0.502673 0.098257
vt 0.456444 0.098257
vt 0.502673 0.098257
vt 0.502673 0.901743
vt 0.456444 0.901743
vt 0.456446 0.034549
vt 0.502672 0.034549
vt 0.502672 0.965451
vt 0.456446 0.965451
vt 0.456446 0.034549
vt 0.502672 0.034549
vt 0.502672 0.965451
vt 0.456446 0.965451
vn 0.000000 0.000000 1.000000
vn 0.000000 0.000000 1.000000
vn 0.000000 0.000000 1.000000
vn 0.000000 0.000000 1.000000
vn 0.000000 1.000000 0.000000
vn 0.000000 1.000000 0.000000
vn 0.000000 1.000000 0.000000
vn 0.000000 1.000000 0.000000
vn 0.000000 0.000000 -1.000000
vn 0.000000 0.000000 -1.000000
vn 0.000000 0.000000 -1.000000
vn 0.000000 0.000000 -1.000000
vn 0.000000 -1.000000 0.000000
vn 0.000000 -1.000000 0.000000
vn 0.000000 -1.000000 0.000000
vn 0.000000 -1.000000 0.000000
vn 1.000000 0.000000 0.000000
vn 1.000000 0.000000 0.000000
vn 1.000000 0.000000 0.000000
vn 1.000000 0.000000 0.000000
vn -1.000000 0.000000 0.000000
vn -1.000000 0.000000 0.000000
vn -1.000000 0.000000 0.000000
vn -1.000000 0.000000 0.000000
vn 0.000000 0.000000 1.000000
vn 0.000000 0.000000 1.000000
vn 0.000000 0.000000 1.000000
vn 0.000000 0.000000 1.000000
vn 1.000000 0.000000 0.000000
vn 1.000000 0.000000 0.000000
vn 1.000000 0.000000 0.000000
vn 1.000000 0.000000 0.000000
vn 0.000000 0.000000 -1.000000
vn 0.000000 0.000000 -1.000000
vn 0.000000 0.000000 -1.000000
vn 0.000000 0.000000 -1.000000
vn -1.000000 0.000000 0.000000
vn -1.000000 0.000000 0.000000
vn -1.000000 0.000000 0.000000
vn -1.000000 0.000000 0.000000
vn 0.000000 -1.000000 0.000000
vn 0.000000 -1.000000 0.000000
vn 0.000000 -1.000000 0.000000
vn 0.000000 -1.000000 0.000000
vn 0.000000 1.000000 0.000000
vn 0.000000 1.000000 0.000000
vn 0.000000 1.000000 0.000000
vn 0.000000 1.000000 0.000000
vn 0.000000 0.000000 1.000000
vn 0.000000 0.000000 1.000000
vn 0.000000 0.000000 1.000000
vn 0.000000 0.000000 1.000000
vn 0.000000 1.000000 0.000000
vn 0.000000 1.000000 0.000000
vn 0.000000 1.000000 0.000000
vn 0.000000 1.000000 0.000000
vn 0.000000 0.000000 -1.000000
vn 0.000000 0.000000 -1.000000
vn 0.000000 0.000000 -1.000000
vn 0.000000 0.000000 -1.000000
vn 0.000000 -1.000000 0.000000
vn 0.000000 -1.000000 0.000000
vn 0.000000 -1.000000 0.000000
vn 0.000000 -1.000000 0.000000
vn 1.000000 0.000000 0.000000
vn 1.000000 0.000000 0.000000
vn 1.000000 0.000000 0.000000
vn 1.000000 0.000000 0.000000
vn -1.000000 0.000000 0.000000
vn -1.000000 0.000000 0.000000
vn -1.000000 0.000000 0.000000
vn -1.000000 0.000000 0.000000
vn 0.000000 0.000000 1.000000
vn 0.000000 0.000000 1.000000
vn 0.000000 0.000000 1.000000
vn 0.000000 0.000000 1.000000
vn 0.000000 1.000000 0.000000
vn 0.000000 1.000000 0.000000
vn 0.000000 1.000000 0.000000
vn 0.000000 1.000000 0.000000
vn 0.000000 0.000000 -1.000000
vn 0.000000 0.000000 -1.000000
vn 0.000000 0.000000 -1.000000
vn 0.000000 0.000000 -1.000000
vn 0.000000 -1.000000 0.000000
vn 0.000000 -1.000000 0.000000
vn 0.000000 -1.000000 0.000000
vn 0.000000 -1.000000 0.000000
vn 1.000000 0.000000 0.000000
vn 1.000000 0.000000 0.000000
vn 1.000000 0.000000 0.000000
vn 1.000000 0.000000 0.000000
vn -1.000000 0.000000 0.000000
vn -1.000000 0.000000 0.000000
vn -1.000000 0.000000 0.000000
vn -1.000000 0.000000 0.000000
vn 0.000000 0.000000 1.000000
vn 0.000000 0.000000 1.000000
vn 0.000000 0.000000 1.000000
vn 0.000000 0.000000 1.000000
vn 1.000000 0.000000 0.000000
vn 1.000000 0.000000 0.000000
vn 1.000000 0.000000 0.000000
vn 1.000000 0.000000 0.000000
vn 0.000000 0.000000 -1.000000
vn 0.000000 0.000000 -1.000000
vn 0.000000 0.000000 -1.000000
vn 0.000000 0.000000 -1.000000
vn -1.000000 0.000000 0.000000
vn -1.000000 0.000000 0.000000
vn -1.000000 0.000000 0.000000
vn -1.000000 0.000000 0.000000
vn 0.000000 -1.000000 0.000000
vn 0.000000 -1.000000 0.000000
vn 0.000000 -1.000000 0.000000
vn 0.000000 -1.000000 0.000000
vn 0.000000 1.000000 0.000000
vn 0.000000 1.000000 0.000000
vn 0.000000 1.000000 0.000000
vn 0.000000 1.000000 0.000000
vn 0.000000 0.000000 1.000000
vn 0.000000 0.000000 1.000000
vn 0.000000 0.000000 1.000000
vn 0.000000 0.000000 1.000000
vn 0.000000 1.000000 0.000000
vn 0.000000 1.000000 0.000000
vn 0.000000 1.000000 0.000000
vn 0.000000 1.000000 0.000000
vn 0.000000 0.000000 -1.000000
vn 0.000000 0.000000 -1.000000
vn 0.000000 0.000000 -1.000000
vn 0.000000 0.000000 -1.000000
vn 0.000000 -1.000000 0.000000
vn 0.000000 -1.000000 0.000000
vn 0.000000 -1.000000 0.000000
vn 0.000000 -1.000000 0.000000
vn 1.000000 0.000000 0.000000
vn 1.000000 0.000000 0.000000
vn 1.000000 0.000000 0.000000
vn 1.000000 0.000000 0.000000
vn -1.000000 0.000000 0.000000
vn -1.000000 0.000000 0.000000
vn -1.000000 0.000000 0.000000
vn -1.000000 0.000000 0.000000
vn 0.000000 0.000000 1.000000
vn 0.000000 0.000000 1.000000
vn 0.000000 0.000000 1.000000
vn 0.000000 0.000000 1.000000
vn 0.000000 1.000000 0.000000
vn 0.000000 1.000000 0.000000
vn 0.000000 1.000000 0.000000
vn 0.000000 1.000000 0.000000
vn 0.000000 0.000000 -1.000000
vn 0.000000 0.000000 -1.000000
vn 0.000000 0.000000 -1.000000
vn 0.000000 0.000000 -1.000000
vn 0.000000 -1.000000 0.000000
vn 0.000000 -1.000000 0.000000
vn 0.000000 -1.000000 0.000000
vn 0.000000 -1.000000 0.000000
vn 1.000000 0.000000 0.000000
vn 1.000000 0.000000 0.000000
vn 1.000000 0.000000 0.000000
vn 1.000000 0.000000 0.000000
vn -1.000000 0.000000 0.000000
vn -1.000000 0.000000 0.000000
vn -1.000000 0.000000 0.000000
vn -1.000000 0.000000 0.000000
vn 0.000000 0.000000 1.000000
vn 0.000000 0.000000 1.000000
vn 0.000000 0.000000 1.000000
vn 0.000000 0.000000 1.000000
vn 1.000000 0.000000 0.000000
vn 1.000000 0.000000 0.000000
vn 1.000000 0.000000 0.000000
vn 1.000000 0.000000 0.000000
vn 0.000000 0.000000 -1.000000
vn 0.000000 0.000000 -1.000000
vn 0.000000 0.000000 -1.000000
vn 0.000000 0.000000 -1.000000
vn -1.000000 0.000000 0.000000
vn -1.000000 0.000000 0.000000
vn -1.000000 0.000000 0.000000
vn -1.000000 0.000000 0.000000
vn 0.000000 -1.000000 0.000000
vn 0.000000 -1.000000 0.000000
vn 0.000000 -1.000000 0.000000
vn 0.000000 -1.000000 0.000000
vn 0.000000 1.000000 0.000000
vn 0.000000 1.000000 0.000000
vn 0.000000 1.000000 0.000000
vn 0.000000 1.000000 0.000000
vn 0.000000 0.000000 1.000000
vn 0.000000 0.000000 1.000000
vn 0.000000 0.000000 1.000000
vn 0.000000 0.000000 1.000000
vn 0.000000 1.000000 0.000000
vn 0.000000 1.000000 0.000000
vn 0.000000 1.000000 0.000000
vn 0.000000 1.000000 0.000000
vn 0.000000 0.000000 -1.000000
vn 0.000000 0.000000 -1.000000
vn 0.000000 0.000000 -1.000000
vn 0.000000 0.000000 -1.000000
vn 0.000000 -1.000000 0.000000
vn 0.000000 -1.000000 0.000000
vn 0.000000 -1.000000 0.000000
vn 0.000000 -1.000000 0.000000
vn 1.000000 0.000000 0.000000
vn 1.000000 0.000000 0.000000
vn 1.000000 0.000000 0.000000
vn 1.000000 0.000000 0.000000
vn -1.000000 0.000000 0.000000
vn -1.000000 0.000000 0.000000
vn -1.000000 0.000000 0.000000
vn -1.000000 0.000000 0.000000
vn 0.000000 0.000000 1.000000
vn 0.000000 0.000000 1.000000
vn 0.000000 0.000000 1.000000
vn 0.000000 0.000000 1.000000
vn 0.000000 1.000000 0.000000
vn 0.000000 1.000000 0.000000
vn 0.000000 1.000000 0.000000
vn 0.000000 1.000000 0.000000
vn 0.000000 0.000000 -1.000000
vn 0.000000 0.000000 -1.000000
vn 0.000000 0.000000 -1.000000
vn 0.000000 0.000000 -1.000000
vn 0.000000 -1.000000 0.000000
vn 0.000000 -1.000000 0.000000
vn 0.000000 -1.000000 0.000000
vn 0.000000 -1.000000 0.000000
vn 1.000000 0.000000 0.000000
vn 1.000000 0.000000 0.000000
vn 1.000000 0.000000 0.000000
vn 1.000000 0.000000 0.000000
vn -1.000000 0.000000 0.000000
vn -1.000000 0.000000 0.000000
vn -1.000000 0.000000 0.000000
vn -1.000000 0.000000 0.000000
vn 0.000000 0.000000 1.000000
vn 0.000000 0.000000 1.000000
vn 0.000000 0.000000 1.000000
vn 0.000000 0.000000 1.000000
vn 1.000000 0.000000 0.000000
vn 1.000000 0.000000 0.000000
vn 1.000000 0.000000 0.000000
vn 1.000000 0.000000 0.000000
vn 0.000000 0.000000 -1.000000
vn 0.000000 0.000000 -1.000000
vn 0.000000 0.000000 -1.000000
vn 0.000000 0.000000 -1.000000
vn -1.000000 0.000000 0.000000
vn -1.000000 0.000000 0.000000
vn -1.000000 0.000000 0.000000
vn -1.000000 0.000000 0.000000
vn 0.000000 -1.000000 0.000000
vn 0.000000 -1.000000 0.000000
vn 0.000000 -1.000000 0.000000
vn 0.000000 -1.000000 0.000000
vn 0.000000 1.000000 0.000000
vn 0.000000 1.000000 0.000000
vn 0.000000 1.000000 0.000000
vn 0.000000 1.000000 0.000000
vn 0.000000 0.000000 1.000000
vn 0.000000 0.000000 1.000000
vn 0.000000 0.000000 1.000000
vn 0.000000 0.000000 1.000000
vn 0.000000 1.000000 0.000000
vn 0.000000 1.000000 0.000000
vn 0.000000 1.000000 0.000000
vn 0.000000 1.000000 0.000000
vn 0.000000 0.000000 -1.000000
vn 0.000000 0.000000 -1.000000
vn 0.000000 0.000000 -1.000000
vn 0.000000 0.000000 -1.000000
vn 0.000000 -1.000000 0.000000
vn 0.000000 -1.000000 0.000000
vn 0.000000 -1.000000 0.000000
vn 0.000000 -1.000000 0.000000
vn 1.000000 0.000000 0.000000
vn 1.000000 0.000000 0.000000
vn 1.000000 0.000000 0.000000
vn 1.000000 0.000000 0.000000
vn -1.000000 0.000000 0.000000
vn -1.000000 0.000000 0.000000
vn -1.000000 0.000000 0.000000
vn -1.000000 0.000000 0.000000
s off
g pCube31 group1
usemtl lambert3SG
f 1/193/1 2/194/2 4/195/3 3/196/4
f 3/97/5 4/98/6 6/99/7 5/100/8
f 5/197/9 6/198/10 8/199/11 7/200/12
f 7/101/13 8/102/14 2/103/15 1/104/16
f 2/1/17 8/2/18 6/3/19 4/4/20
f 7/5/21 1/6/22 3/7/23 5/8/24
f 9/201/25 10/202/26 12/203/27 11/204/28
f 11/9/29 12/10/30 14/11/31 13/12/32
f 13/205/33 14/206/34 16/207/35 15/208/36
f 15/13/37 16/14/38 10/15/39 9/16/40
f 10/105/41 16/106/42 14/107/43 12/108/44
f 15/109/45 9/110/46 11/111/47 13/112/48
f 17/209/49 18/210/50 20/211/51 19/212/52
f 19/113/53 20/114/54 22/115/55 21/116/56
f 21/213/57 22/214/58 24/215/59 23/216/60
f 23/117/61 24/118/62 18/119/63 17/120/64
f 18/17/65 24/18/66 22/19/67 20/20/68
f 23/21/69 17/22/70 19/23/71 21/24/72
f 25/217/73 26/218/74 28/219/75 27/220/76
f 27/121/77 28/122/78 30/123/79 29/124/80
f 29/221/81 30/222/82 32/223/83 31/224/84
f 31/125/85 32/126/86 26/127/87 25/128/88
f 26/25/89 32/26/90 30/27/91 28/28/92
f 31/29/93 25/30/94 27/31/95 29/32/96
f 33/225/97 34/226/98 36/227/99 35/228/100
f 35/33/101 36/34/102 38/35/103 37/36/104
f 37/229/105 38/230/106 40/231/107 39/232/108
f 39/37/109 40/38/110 34/39/111 33/40/112
f 34/129/113 40/130/114 38/131/115 36/132/116
f 39/133/117 33/134/118 35/135/119 37/136/120
f 41/233/121 42/234/122 44/235/123 43/236/124
f 43/137/125 44/138/126 46/139/127 45/140/128
f 45/237/129 46/238/130 48/239/131 47/240/132
f 47/141/133 48/142/134 42/143/135 41/144/136
f 42/41/137 48/42/138 46/43/139 44/44/140
f 47/45/141 41/46/142 43/47/143 45/48/144
f 49/241/145 50/242/146 52/243/147 51/244/148
f 51/145/149 52/146/150 54/147/151 53/148/152
f 53/245/153 54/246/154 56/247/155 55/248/156
f 55/149/157 56/150/158 50/151/159 49/152/160
f 50/49/161 56/50/162 54/51/163 52/52/164
f 55/53/165 49/54/166 51/55/167 53/56/168
f 57/249/169 58/250/170 60/251/171 59/252/172
f 59/57/173 60/58/174 62/59/175 61/60/176
f 61/253/177 62/254/178 64/255/179 63/256/180
f 63/61/181 64/62/182 58/63/183 57/64/184
f 58/153/185 64/154/186 62/155/187 60/156/188
f 63/157/189 57/158/190 59/159/191 61/160/192
f 65/257/193 66/258/194 68/259/195 67/260/196
f 67/161/197 68/162/198 70/163/199 69/164/200
f 69/261/201 70/262/202 72/263/203 71/264/204
f 71/165/205 72/166/206 66/167/207 65/168/208
f 66/65/209 72/66/210 70/67/211 68/68/212
f 71/69/213 65/70/214 67/71/215 69/72/216
f 73/265/217 74/266/218 76/267/219 75/268/220
f 75/169/221 76/170/222 78/171/223 77/172/224
f 77/269/225 78/270/226 80/271/227 79/272/228
f 79/173/229 80/174/230 74/175/231 73/176/232
f 74/73/233 80/74/234 78/75/235 76/76/236
f 79/77/237 73/78/238 75/79/239 77/80/240
f 81/273/241 82/274/242 84/275/243 83/276/244
f 83/81/245 84/82/246 86/83/247 85/84/248
f 85/277/249 86/278/250 88/279/251 87/280/252
f 87/85/253 88/86/254 82/87/255 81/88/256
f 82/177/257 88/178/258 86/179/259 84/180/260
f 87/181/261 81/182/262 83/183/263 85/184/264
f 89/281/265 90/282/266 92/283/267 91/284/268
f 91/185/269 92/186/270 94/187/271 93/188/272
f 93/285/273 94/286/274 96/287/275 95/288/276
f 95/189/277 96/190/278 90/191/279 89/192/280
f 90/89/281 96/90/282 94/91/283 92/92/284
f 95/93/285 89/94/286 91/95/287 93/96/288
