# This file uses centimeters as units for non-parametric coordinates.

v -0.093957 -0.188721 0.122933
v -0.090762 -0.095762 0.195156
v -0.184690 -0.095762 0.116728
v 0.125358 -0.111019 0.177943
v 0.078968 -0.203978 0.131351
v -0.153283 0.074935 0.090962
v -0.066870 0.027446 0.184849
v -0.083018 0.212433 0.065607
v 0.111384 0.074935 0.154059
v -0.177530 0.074935 -0.046699
v -0.093208 0.167894 -0.049537
v -0.093208 0.074935 -0.142495
v 0.053715 0.033053 -0.174921
v 0.079004 0.178132 -0.054306
v 0.171885 0.074935 -0.054333
v -0.104244 -0.119474 -0.154802
v -0.007651 -0.212433 -0.062810
v 0.065432 -0.072908 -0.195155
v 0.135839 -0.172681 -0.067143
v 0.184690 -0.123830 0.030578
v 0.184690 -0.026109 -0.067143
v 0.135839 -0.123830 -0.115994
vt 0.604624 0.007975
vt 0.344628 0.270333
vt 0.540296 0.408489
vt 0.433229 0.531952
vt 0.249824 0.253697
vt 0.670078 0.260927
vt 0.687280 0.913246
vt 0.256850 0.127376
vt 0.034684 0.735807
vt 0.719672 0.648763
vt 0.635208 0.762057
vt 0.556099 0.654315
vt 0.610281 0.612400
vt 0.194402 0.715570
vt 0.231282 0.841149
vt 0.562633 0.186881
vt 0.867180 0.849844
vt 0.820467 0.635599
vt 0.401018 0.737585
vt 0.300384 0.985520
vt 0.736509 0.458824
vt 0.639775 0.512709
vt 0.511971 0.921770
vt 0.542010 0.675164
vt 0.670409 0.290077
vt 0.118698 0.923480
vt 0.310211 0.454327
vt 0.048181 0.540750
vt 0.413850 0.124644
vt 0.088772 0.370996
vt 0.874436 0.405731
vt 0.984030 0.263048
vt 0.911567 0.051160
vt 0.274257 0.369427
vt 0.044424 0.256290
vt 0.076858 0.065859
vt 0.572798 0.916740
vn -0.651558 -0.741380 -0.160713
vn -0.651558 -0.741380 -0.160713
vn -0.651558 -0.741380 -0.160713
vn -0.651558 -0.741380 -0.160713
vn -0.022778 -0.534041 0.845151
vn -0.022778 -0.534042 0.845151
vn -0.022778 -0.534042 0.845151
vn -0.022778 -0.534041 0.845151
vn -0.645512 0.211526 0.733874
vn -0.645512 0.211526 0.733874
vn -0.645512 0.211526 0.733874
vn -0.645512 0.211526 0.733874
vn 0.904557 -0.301477 -0.301477
vn 0.904557 -0.301477 -0.301477
vn 0.904557 -0.301477 -0.301477
vn 0.904557 -0.301477 -0.301477
vn -0.829549 0.558242 0.014651
vn -0.829549 0.558242 0.014651
vn -0.829549 0.558242 0.014651
vn -0.829549 0.558242 0.014651
vn 0.000821 0.541842 0.840480
vn 0.000821 0.541842 0.840480
vn 0.000821 0.541843 0.840480
vn 0.726586 0.653894 0.210941
vn 0.726586 0.653894 0.210942
vn 0.726586 0.653894 0.210941
vn -0.747970 0.084138 -0.658378
vn -0.747970 0.084138 -0.658378
vn -0.747970 0.084138 -0.658378
vn -0.020284 0.668878 -0.743095
vn -0.020284 0.668878 -0.743096
vn -0.020284 0.668878 -0.743095
vn -0.020284 0.668878 -0.743095
vn 0.018926 -0.693272 -0.720428
vn 0.018926 -0.693272 -0.720428
vn 0.018926 -0.693272 -0.720428
vn 0.111632 0.105696 0.988113
vn 0.111632 0.105696 0.988113
vn 0.111632 0.105696 0.988113
vn 0.111632 0.105696 0.988113
vn -0.065275 0.932599 -0.354962
vn -0.065275 0.932599 -0.354962
vn -0.065275 0.932599 -0.354962
vn -0.224275 0.104460 -0.968911
vn -0.224275 0.104460 -0.968911
vn -0.224275 0.104460 -0.968911
vn -0.224275 0.104460 -0.968911
vn -0.091636 -0.992236 0.084088
vn -0.091636 -0.992236 0.084088
vn -0.091636 -0.992236 0.084088
vn -0.964322 0.203062 0.169853
vn -0.964322 0.203062 0.169853
vn -0.964322 0.203062 0.169853
vn -0.555787 -0.498043 0.665623
vn -0.555787 -0.498043 0.665623
vn -0.555787 -0.498043 0.665623
vn -0.554351 0.416198 0.720746
vn -0.554351 0.416198 0.720746
vn -0.554351 0.416198 0.720746
vn -0.626277 0.551260 -0.551261
vn -0.626277 0.551260 -0.551261
vn -0.626277 0.551260 -0.551261
vn 0.535932 0.482534 -0.692776
vn 0.535932 0.482534 -0.692776
vn 0.535932 0.482534 -0.692776
vn 0.924825 0.116024 0.362267
vn 0.924825 0.116024 0.362267
vn 0.924825 0.116024 0.362267
vn 0.754981 -0.553223 0.352063
vn 0.754981 -0.553223 0.352063
vn 0.754981 -0.553223 0.352063
vn 0.196044 -0.718231 -0.667616
vn 0.196044 -0.718231 -0.667616
vn 0.196044 -0.718231 -0.667616
vn 0.196044 -0.718231 -0.667616
vn 0.695450 0.131947 -0.706356
vn 0.695450 0.131947 -0.706356
vn 0.695450 0.131947 -0.706356
vn 0.695450 0.131947 -0.706356
vn 0.695450 0.131947 -0.706356
vn 0.432035 0.833071 0.345455
vn 0.432035 0.833071 0.345455
vn 0.432035 0.833071 0.345455
vn 0.426460 -0.904276 -0.020392
vn 0.426460 -0.904276 -0.020392
vn 0.426460 -0.904276 -0.020392
vn 0.426460 -0.904276 -0.020392
vn 0.956272 0.164823 0.241614
vn 0.956272 0.164823 0.241614
vn 0.956272 0.164823 0.241614
vn 0.956272 0.164823 0.241614
vn -0.942237 -0.210172 -0.260800
vn -0.942237 -0.210172 -0.260800
vn -0.942237 -0.210172 -0.260800
s off
f 1/34/1 3/2/2 16/3/3 17/4/4
f 2/5/5 1/34/6 5/30/7 4/35/8
f 3/2/9 2/5/10 7/8/11 6/29/12
f 21/10/13 20/11/14 19/12/15 22/13/16
f 6/9/17 8/14/18 11/15/19 10/26/20
f 8/14/21 7/28/22 9/27/23
f 9/27/24 15/24/25 14/19/26
f 10/16/27 12/25/28 16/3/29
f 12/20/30 11/15/31 14/19/32 13/23/33
f 17/4/34 16/3/35 18/22/36
f 2/5/37 4/35/38 9/36/39 7/8/40
f 8/14/41 14/19/42 11/15/43
f 12/25/44 13/21/45 18/22/46 16/3/47
f 17/33/48 5/6/49 1/1/50
f 10/16/51 3/2/52 6/29/53
f 1/34/54 2/5/55 3/2/56
f 6/9/57 7/28/58 8/14/59
f 10/26/60 11/15/61 12/20/62
f 13/23/63 14/19/64 15/24/65
f 4/7/66 20/11/67 9/17/68
f 4/7/69 5/37/70 20/11/71
f 17/4/72 18/22/73 22/13/74 19/12/75
f 13/21/76 15/18/77 21/10/78 22/13/79 18/22/80
f 8/14/81 9/27/82 14/19/83
f 20/31/84 5/6/85 17/33/86 19/32/87
f 9/17/88 20/11/89 21/10/90 15/18/91
f 16/3/92 3/2/93 10/16/94
