# This file uses centimeters as units for non-parametric coordinates.

v 0.273895 0.142453 0.000000
v 0.136947 0.142453 -0.237200
v -0.136949 0.142453 -0.237199
v -0.273896 0.142453 0.000000
v -0.136948 0.142453 0.237201
v 0.136947 0.142453 0.237200
v 0.273896 0.957149 0.000000
v 0.136947 0.957149 -0.237200
v -0.136949 0.957149 -0.237199
v -0.273896 0.957149 0.000000
v -0.136948 0.957149 0.237201
v 0.136947 0.957149 0.237200
v -0.043096 0.845991 0.237200
v 0.057113 0.789848 0.237201
v -0.041927 0.724321 0.237200
v -0.022450 0.631257 0.237201
v 0.048236 0.657787 0.237201
v 0.020022 0.700886 0.237200
v -0.009916 0.669517 0.237201
v 0.013456 0.745429 0.237201
v 0.092663 0.761976 0.237201
v 0.051828 0.717899 0.237201
v 0.080422 0.654819 0.237200
v -0.022712 0.597263 0.237201
v -0.045019 0.600396 0.237201
v -0.044430 0.575510 0.237201
v -0.069436 0.735398 0.237200
v -0.014386 0.792729 0.237200
v -0.003925 0.840038 0.237200
v -0.015855 0.822737 0.237201
v 0.006758 0.780260 0.237201
v -0.086187 0.676086 0.237201
v -0.052270 0.670666 0.237201
v -0.035755 0.611432 0.237201
v -0.081126 0.619521 0.237200
v -0.042372 0.650771 0.237201
v 0.018246 0.626188 0.237200
v 0.026926 0.596158 0.237201
v -0.004684 0.694825 0.237200
v -0.012583 0.703751 0.237201
v 0.050252 0.762487 0.237201
v 0.058804 0.742322 0.237200
v -0.304224 1.099752 0.000000
v -0.152112 1.099752 0.263465
v -0.152111 1.099752 -0.263465
v 0.152112 1.099752 -0.263464
v 0.304224 1.099752 0.000000
v 0.152112 1.099752 0.263464
v -0.167463 1.036317 0.290053
v -0.334925 1.036317 0.000000
v -0.167462 1.036317 -0.290053
v 0.167462 1.036317 -0.290053
v 0.334925 1.036317 0.000000
v 0.167462 1.036317 0.290053
v 0.152112 0.969158 -0.263464
v 0.304224 0.969158 0.000000
v -0.152111 0.969158 -0.263465
v -0.304223 0.969158 0.000000
v -0.152111 0.969158 0.263465
v 0.152112 0.969158 0.263464
v -0.000000 1.003546 -0.013241
v -0.131879 1.137963 0.029609
v -0.081505 1.137963 -0.125424
v 0.081506 1.137963 -0.125424
v 0.131879 1.137963 0.029609
v -0.000000 1.137963 0.125424
v -0.152112 1.126501 0.263465
v -0.145495 1.137963 0.252003
v -0.304224 1.126501 0.000000
v -0.290989 1.137963 0.000000
v -0.152111 1.126501 -0.263465
v -0.145494 1.137963 -0.252003
v 0.152112 1.126501 -0.263464
v 0.145494 1.137963 -0.252002
v 0.304224 1.126501 0.000000
v 0.290988 1.137963 0.000000
v 0.152112 1.126501 0.263464
v 0.145494 1.137963 0.252003
v -0.318942 0.000000 -0.349440
v -0.349440 0.000000 -0.318943
v -0.318942 0.086694 -0.349440
v -0.349440 0.086694 -0.318943
v -0.318942 0.000000 0.349440
v -0.349440 0.000000 0.318943
v -0.349440 0.086694 0.318943
v -0.318942 0.086694 0.349440
v 0.349440 0.086694 -0.318943
v 0.318944 0.086694 -0.349440
v 0.318944 0.000000 -0.349440
v 0.349440 0.000000 -0.318943
v 0.318944 0.086694 0.349440
v 0.349440 0.086694 0.318943
v 0.318944 0.000000 0.349440
v 0.349440 0.000000 0.318943
v -0.274507 0.142453 -0.305006
v -0.305006 0.142453 -0.274508
v -0.274507 0.142453 0.305006
v -0.305006 0.142453 0.274508
v 0.305006 0.142453 0.274508
v 0.274509 0.142453 0.305006
v 0.274509 0.142453 -0.305006
v 0.305006 0.142453 -0.274508
vt 0.540933 0.114986
vt 0.669489 0.123872
vt 0.643942 0.492793
vt 0.527522 0.474919
vt 0.706391 0.450411
vt 0.763786 0.515786
vt 0.688905 0.450079
vt 0.703454 0.428148
vt 0.701752 0.441645
vt 0.680682 0.398228
vt 0.709649 0.376580
vt 0.709063 0.363469
vt 0.717700 0.362847
vt 0.718843 0.369174
vt 0.735359 0.431495
vt 0.733300 0.418564
vt 0.713313 0.423993
vt 0.717516 0.408934
vt 0.693289 0.395721
vt 0.707140 0.389582
vt 0.698865 0.355505
vt 0.706108 0.358978
vt 0.689166 0.371072
vt 0.692551 0.363178
vt 0.697199 0.327085
vt 0.707692 0.335750
vt 0.702827 0.341173
vt 0.699991 0.338292
vt 0.752251 0.420499
vt 0.675007 0.369974
vt 0.678928 0.345214
vt 0.796033 0.132688
vt 0.730250 0.338688
vt 0.751190 0.369335
vt 0.737966 0.409757
vt 0.735829 0.398328
vt 0.626937 0.564194
vt 0.519108 0.548257
vt 0.522583 0.517952
vt 0.635058 0.535379
vt 0.412433 0.544979
vt 0.411584 0.514456
vt 0.303821 0.551046
vt 0.299844 0.520974
vt 0.195013 0.566398
vt 0.187082 0.537154
vt 0.077131 0.602875
vt 0.058180 0.570267
vt 0.744635 0.602425
vt 0.764503 0.570846
vt 0.296102 0.489857
vt 0.180416 0.506801
vt 0.178580 0.494760
vt 0.294899 0.477936
vt 0.411007 0.483015
vt 0.411010 0.471026
vt 0.526029 0.486782
vt 0.641594 0.504794
vt 0.767739 0.532093
vt 0.055992 0.532085
vt 0.059387 0.516195
vt 0.400038 0.921336
vt 0.298813 0.832831
vt 0.410333 0.807422
vt 0.515490 0.852416
vt 0.485620 0.721316
vt 0.351706 0.709212
vt 0.622922 0.575265
vt 0.620344 0.581959
vt 0.516824 0.567294
vt 0.517708 0.560129
vt 0.738637 0.615200
vt 0.732183 0.621916
vt 0.413647 0.564194
vt 0.413103 0.556973
vt 0.307102 0.569740
vt 0.305754 0.562743
vt 0.201082 0.584291
vt 0.198730 0.577562
vt 0.089135 0.622613
vt 0.082927 0.615770
vt 0.630155 0.652644
vt 0.526791 0.629138
vt 0.415313 0.619254
vt 0.310315 0.629432
vt 0.205062 0.644542
vt 0.146991 0.696879
vt 0.411010 0.109868
vt 0.280620 0.113224
vt 0.151871 0.122967
vt 0.027994 0.136458
vt 0.639894 0.087309
vt 0.672886 0.087309
vt 0.979182 0.087308
vt 0.032635 0.087308
vt 0.245839 0.087308
vt 0.253122 0.087309
vt 0.433593 0.087309
vt 0.448442 0.087308
vt 0.639894 0.008006
vt 0.672886 0.008006
vt 0.672886 0.050155
vt 0.639894 0.050155
vt 0.979182 0.008006
vt 0.032635 0.008006
vt 0.032635 0.050155
vt 0.979182 0.050155
vt 0.433593 0.050155
vt 0.448442 0.050155
vt 0.433593 0.008006
vt 0.448442 0.008006
vt 0.245839 0.050155
vt 0.253122 0.050155
vt 0.245839 0.008006
vt 0.253122 0.008006
vt 0.712495 0.710340
vt 0.725423 0.696812
vt 0.717892 0.948472
vt 0.731420 0.961401
vt 0.982481 0.942476
vt 0.969553 0.956004
vt 0.977085 0.704343
vt 0.963556 0.691415
vt 0.015044 0.087309
vt 0.015044 0.050155
vt 0.015044 0.008006
vn -0.866026 0.000000 0.499999
vn -0.866026 0.000000 0.499999
vn -0.866026 0.000000 0.499999
vn -0.866026 0.000000 0.499999
vn 0.000003 -0.000005 1.000000
vn 0.000003 -0.000005 1.000000
vn 0.000003 -0.000005 1.000000
vn 0.000003 -0.000005 1.000000
vn -0.000005 -0.000003 1.000000
vn -0.000005 -0.000003 1.000000
vn -0.000005 -0.000003 1.000000
vn -0.000005 -0.000003 1.000000
vn 0.000007 0.000023 1.000000
vn 0.000007 0.000023 1.000000
vn 0.000007 0.000023 1.000000
vn 0.000007 0.000023 1.000000
vn -0.000008 0.000009 1.000000
vn -0.000008 0.000009 1.000000
vn -0.000008 0.000009 1.000000
vn -0.000003 -0.000008 1.000000
vn -0.000003 -0.000008 1.000000
vn -0.000003 -0.000008 1.000000
vn -0.000003 -0.000008 1.000000
vn -0.000009 0.000002 1.000000
vn -0.000009 0.000002 1.000000
vn -0.000009 0.000002 1.000000
vn -0.000009 0.000002 1.000000
vn 0.000012 -0.000014 1.000000
vn 0.000012 -0.000014 1.000000
vn 0.000012 -0.000014 1.000000
vn 0.000012 -0.000014 1.000000
vn -0.000010 0.000012 1.000000
vn -0.000010 0.000012 1.000000
vn -0.000010 0.000012 1.000000
vn -0.000010 0.000012 1.000000
vn -0.000005 0.000008 1.000000
vn -0.000005 0.000008 1.000000
vn -0.000005 0.000008 1.000000
vn -0.000005 0.000008 1.000000
vn 0.000001 0.000000 1.000000
vn 0.000001 0.000000 1.000000
vn 0.000001 0.000000 1.000000
vn 0.000001 0.000000 1.000000
vn 0.000003 0.000004 1.000000
vn 0.000003 0.000004 1.000000
vn 0.000003 0.000004 1.000000
vn 0.000021 0.000002 1.000000
vn 0.000021 0.000002 1.000000
vn 0.000021 0.000002 1.000000
vn -0.000020 0.000004 1.000000
vn -0.000020 0.000004 1.000000
vn -0.000020 0.000004 1.000000
vn 0.000014 -0.000000 1.000000
vn 0.000014 -0.000000 1.000000
vn 0.000014 -0.000000 1.000000
vn 0.000014 -0.000000 1.000000
vn 0.000003 -0.000001 1.000000
vn 0.000003 -0.000001 1.000000
vn 0.000003 -0.000001 1.000000
vn 0.000003 -0.000001 1.000000
vn -0.000000 -0.000002 1.000000
vn -0.000000 -0.000002 1.000000
vn -0.000000 -0.000002 1.000000
vn 0.000016 0.000002 1.000000
vn 0.000016 0.000002 1.000000
vn 0.000016 0.000002 1.000000
vn 0.000000 0.000000 1.000000
vn 0.000000 0.000000 1.000000
vn 0.000000 0.000000 1.000000
vn 0.000000 0.000000 1.000000
vn 0.000006 -0.000001 1.000000
vn 0.000006 -0.000001 1.000000
vn 0.000006 -0.000001 1.000000
vn 0.000006 -0.000001 1.000000
vn -0.000011 -0.000015 1.000000
vn -0.000011 -0.000015 1.000000
vn -0.000011 -0.000015 1.000000
vn 0.000008 -0.000002 1.000000
vn 0.000008 -0.000002 1.000000
vn 0.000008 -0.000002 1.000000
vn -0.798707 0.386550 0.461135
vn -0.798707 0.386550 0.461135
vn -0.798707 0.386550 0.461135
vn -0.798707 0.386550 0.461135
vn -0.798706 0.386550 -0.461137
vn -0.798706 0.386550 -0.461137
vn -0.798706 0.386550 -0.461137
vn -0.798706 0.386550 -0.461137
vn 0.000001 0.386564 -0.922263
vn 0.000001 0.386564 -0.922263
vn 0.000001 0.386564 -0.922263
vn 0.000001 0.386564 -0.922263
vn 0.798703 0.386560 -0.461134
vn 0.798703 0.386560 -0.461134
vn 0.798703 0.386560 -0.461134
vn 0.798703 0.386560 -0.461134
vn 0.798705 0.386554 0.461136
vn 0.798705 0.386554 0.461136
vn 0.798705 0.386554 0.461136
vn 0.798705 0.386554 0.461136
vn 0.000001 0.386558 0.922265
vn 0.000001 0.386558 0.922265
vn 0.000001 0.386558 0.922265
vn 0.000001 0.386558 0.922265
vn 0.360107 -0.909449 -0.207909
vn 0.360107 -0.909449 -0.207909
vn 0.360107 -0.909449 -0.207909
vn 0.360107 -0.909449 -0.207909
vn 0.000000 -0.909448 -0.415818
vn 0.000000 -0.909448 -0.415818
vn 0.000000 -0.909448 -0.415818
vn 0.000000 -0.909448 -0.415818
vn -0.360116 -0.909444 -0.207914
vn -0.360116 -0.909444 -0.207914
vn -0.360116 -0.909444 -0.207914
vn -0.360116 -0.909444 -0.207914
vn -0.360120 -0.909442 0.207914
vn -0.360120 -0.909442 0.207914
vn -0.360120 -0.909442 0.207914
vn -0.360120 -0.909442 0.207914
vn 0.000001 -0.909442 0.415832
vn 0.000001 -0.909442 0.415832
vn 0.000001 -0.909442 0.415832
vn 0.000001 -0.909441 0.415832
vn 0.360111 -0.909447 0.207911
vn 0.360111 -0.909447 0.207911
vn 0.360111 -0.909447 0.207911
vn 0.360111 -0.909447 0.207911
vn 0.805216 -0.368103 -0.464894
vn 0.805216 -0.368103 -0.464894
vn 0.805216 -0.368103 -0.464894
vn 0.805216 -0.368103 -0.464894
vn 0.000001 -0.368107 -0.929783
vn 0.000001 -0.368108 -0.929783
vn 0.000001 -0.368108 -0.929783
vn 0.000001 -0.368108 -0.929783
vn -0.805217 -0.368102 -0.464895
vn -0.805217 -0.368102 -0.464895
vn -0.805217 -0.368102 -0.464895
vn -0.805217 -0.368102 -0.464895
vn -0.805216 -0.368107 0.464893
vn -0.805216 -0.368107 0.464893
vn -0.805216 -0.368107 0.464893
vn -0.805216 -0.368107 0.464893
vn 0.000001 -0.368104 0.929785
vn 0.000001 -0.368104 0.929785
vn 0.000001 -0.368104 0.929785
vn 0.000001 -0.368104 0.929785
vn 0.805217 -0.368101 0.464895
vn 0.805217 -0.368101 0.464895
vn 0.805217 -0.368101 0.464895
vn 0.805217 -0.368101 0.464895
vn 0.730170 0.640753 0.237250
vn 0.730170 0.640753 0.237250
vn 0.730170 0.640753 0.237250
vn 0.000000 0.640754 0.767746
vn 0.000000 0.640754 0.767746
vn 0.000000 0.640754 0.767746
vn -0.730170 0.640754 0.237245
vn -0.730170 0.640754 0.237245
vn -0.730170 0.640754 0.237245
vn -0.451270 0.640754 -0.621120
vn -0.451270 0.640754 -0.621120
vn -0.451270 0.640754 -0.621120
vn 0.451270 0.640754 -0.621120
vn 0.451270 0.640754 -0.621120
vn 0.451270 0.640754 -0.621120
vn -0.612369 0.707110 0.353554
vn -0.612369 0.707110 0.353554
vn -0.612369 0.707110 0.353554
vn -0.612369 0.707110 0.353554
vn 0.000001 0.707102 0.707112
vn 0.000001 0.707102 0.707112
vn 0.000001 0.707102 0.707112
vn 0.000001 0.707102 0.707112
vn -0.612372 0.707107 -0.353555
vn -0.612372 0.707107 -0.353555
vn -0.612372 0.707107 -0.353555
vn -0.612372 0.707107 -0.353555
vn 0.000003 0.707101 -0.707113
vn 0.000003 0.707101 -0.707113
vn 0.000003 0.707101 -0.707113
vn 0.000003 0.707101 -0.707113
vn 0.612369 0.707109 -0.353554
vn 0.612369 0.707110 -0.353554
vn 0.612369 0.707110 -0.353554
vn 0.612369 0.707110 -0.353554
vn 0.612372 0.707106 0.353556
vn 0.612372 0.707106 0.353556
vn 0.612372 0.707106 0.353556
vn 0.612372 0.707106 0.353556
vn 0.000000 1.000000 -0.000000
vn 0.000000 1.000000 -0.000000
vn 0.000000 1.000000 -0.000000
vn 0.000000 1.000000 -0.000000
vn 0.000000 1.000000 0.000000
vn 0.000000 1.000000 0.000000
vn 0.000000 1.000000 0.000000
vn 0.000000 1.000000 0.000000
vn 0.000000 1.000000 0.000001
vn 0.000000 1.000000 0.000001
vn 0.000000 1.000000 0.000001
vn 0.000000 1.000000 0.000001
vn 0.000000 1.000000 0.000000
vn 0.000000 1.000000 0.000000
vn 0.000000 1.000000 0.000000
vn 0.000000 1.000000 0.000000
vn 0.000000 1.000000 -0.000000
vn 0.000000 1.000000 -0.000000
vn 0.000000 1.000000 -0.000000
vn 0.000000 1.000000 -0.000000
vn 0.000000 1.000000 0.000000
vn 0.000000 1.000000 0.000000
vn 0.000000 1.000000 0.000000
vn -0.866025 0.000000 0.500001
vn -0.866025 0.000000 0.500001
vn -0.866025 0.000000 0.500001
vn -0.866025 0.000000 0.500001
vn -0.866024 0.000000 -0.500003
vn -0.866024 0.000000 -0.500003
vn -0.866024 0.000000 -0.500003
vn -0.866024 0.000000 -0.500003
vn 0.000003 0.000000 -1.000000
vn 0.000003 0.000000 -1.000000
vn 0.000003 0.000000 -1.000000
vn 0.000003 0.000000 -1.000000
vn 0.866025 0.000000 -0.500001
vn 0.866025 0.000000 -0.500001
vn 0.866025 0.000000 -0.500001
vn 0.866025 0.000000 -0.500001
vn 0.866024 0.000000 0.500002
vn 0.866024 0.000000 0.500002
vn 0.866024 0.000000 0.500002
vn 0.866024 0.000000 0.500002
vn 0.000002 0.000000 1.000000
vn 0.000002 0.000000 1.000000
vn 0.000002 0.000000 1.000000
vn 0.000002 0.000000 1.000000
vn -0.866026 0.000000 -0.499998
vn -0.866026 0.000000 -0.499998
vn -0.866026 0.000000 -0.499998
vn -0.866026 0.000000 -0.499998
vn -0.000002 0.000000 -1.000000
vn -0.000002 0.000000 -1.000000
vn -0.000002 0.000000 -1.000000
vn -0.000002 0.000000 -1.000000
vn 0.866025 -0.000000 -0.500001
vn 0.866025 -0.000000 -0.500001
vn 0.866025 -0.000000 -0.500001
vn 0.866025 -0.000000 -0.500001
vn 0.866025 -0.000000 0.500001
vn 0.866025 -0.000000 0.500001
vn 0.866025 -0.000000 0.500001
vn 0.866025 -0.000000 0.500001
vn 0.000000 1.000000 0.000000
vn 0.000000 1.000000 0.000000
vn 0.000000 1.000000 0.000000
vn 0.000000 1.000000 0.000000
vn 0.000000 1.000000 0.000000
vn 0.000000 1.000000 0.000000
vn 0.000000 1.000000 0.000000
vn 0.000000 1.000000 0.000000
vn -0.707096 0.000000 -0.707118
vn -0.707096 0.000000 -0.707118
vn -0.707096 0.000000 -0.707118
vn -0.707096 0.000000 -0.707118
vn -0.469307 0.747990 -0.469321
vn -0.469307 0.747990 -0.469321
vn -0.469307 0.747990 -0.469321
vn -0.469307 0.747990 -0.469321
vn -0.707096 0.000000 0.707117
vn -0.707096 0.000000 0.707117
vn -0.707096 0.000000 0.707117
vn -0.707096 0.000000 0.707117
vn -0.469307 0.747990 0.469321
vn -0.469307 0.747990 0.469321
vn -0.469307 0.747990 0.469321
vn -0.469307 0.747990 0.469321
vn 0.469322 0.747990 -0.469306
vn 0.469322 0.747990 -0.469306
vn 0.469322 0.747990 -0.469306
vn 0.469322 0.747990 -0.469306
vn 0.707118 0.000000 -0.707095
vn 0.707118 0.000000 -0.707095
vn 0.707118 0.000000 -0.707095
vn 0.707118 0.000000 -0.707095
vn 0.469322 0.747990 0.469307
vn 0.469322 0.747990 0.469307
vn 0.469322 0.747990 0.469307
vn 0.469322 0.747990 0.469307
vn 0.707118 0.000000 0.707096
vn 0.707118 0.000000 0.707096
vn 0.707118 0.000000 0.707096
vn 0.707118 0.000000 0.707096
vn -1.000000 0.000000 0.000000
vn -1.000000 0.000000 0.000000
vn -1.000000 0.000000 0.000000
vn -1.000000 0.000000 0.000000
vn 1.000000 0.000000 -0.000000
vn 1.000000 0.000000 -0.000000
vn 1.000000 0.000000 -0.000000
vn 1.000000 0.000000 -0.000000
vn 0.000000 0.000000 1.000000
vn 0.000000 0.000000 1.000000
vn 0.000000 0.000000 1.000000
vn 0.000000 0.000000 1.000000
vn 0.000000 0.000000 -1.000000
vn 0.000000 0.000000 -1.000000
vn 0.000000 0.000000 -1.000000
vn 0.000000 0.000000 -1.000000
vn -0.782051 0.623214 0.000000
vn -0.782051 0.623214 0.000000
vn -0.782051 0.623214 0.000000
vn -0.782051 0.623214 0.000000
vn 0.000000 0.623214 0.782051
vn 0.000000 0.623214 0.782051
vn 0.000000 0.623214 0.782051
vn 0.000000 0.623214 0.782051
vn 0.782051 0.623214 -0.000000
vn 0.782051 0.623214 -0.000000
vn 0.782051 0.623214 -0.000000
vn 0.782051 0.623214 -0.000000
vn 0.000000 0.623214 -0.782051
vn 0.000000 0.623214 -0.782051
vn 0.000000 0.623214 -0.782051
vn 0.000000 0.623214 -0.782051
s off
f 4/1/1 5/2/2 11/3/3 10/4/4
f 29/5/5 12/6/6 11/3/7 13/7/8
f 28/8/9 30/9/10 13/7/11 27/10/12
f 19/11/13 17/12/14 18/13/15 39/14/16
f 14/15/17 12/6/18 29/5/19
f 41/16/20 14/15/21 31/17/22 20/18/23
f 20/18/24 31/17/25 15/19/26 40/20/27
f 19/11/28 16/21/29 37/22/30 17/12/31
f 40/20/32 15/19/33 33/23/34 19/11/35
f 19/11/36 33/23/37 36/24/38 16/21/39
f 26/25/40 24/26/41 34/27/42 25/28/43
f 21/29/44 12/6/45 14/15/46
f 11/3/47 32/30/48 27/10/49
f 5/2/50 26/25/51 35/31/52
f 5/2/53 35/31/54 32/30/55 11/3/56
f 5/2/57 6/32/58 24/26/59 26/25/60
f 24/26/61 6/32/62 38/33/63
f 38/33/64 6/32/65 23/34/66
f 23/34/67 21/29/68 42/35/69 22/36/70
f 23/34/71 6/32/72 12/6/73 21/29/74
f 21/29/75 14/15/76 41/16/77
f 11/3/78 27/10/79 13/7/80
f 44/37/81 43/38/82 50/39/83 49/40/84
f 43/38/85 45/41/86 51/42/87 50/39/88
f 45/41/89 46/43/90 52/44/91 51/42/92
f 46/43/93 47/45/94 53/46/95 52/44/96
f 47/45/97 48/47/98 54/48/99 53/46/100
f 48/49/101 44/37/102 49/40/103 54/50/104
f 55/51/105 56/52/106 7/53/107 8/54/108
f 57/55/109 55/51/110 8/54/111 9/56/112
f 58/57/113 57/55/114 9/56/115 10/4/116
f 59/58/117 58/57/118 10/4/119 11/3/120
f 60/59/121 59/58/122 11/3/123 12/6/124
f 56/52/125 60/60/126 12/61/127 7/53/128
f 52/44/129 53/46/130 56/52/131 55/51/132
f 51/42/133 52/44/134 55/51/135 57/55/136
f 50/39/137 51/42/138 57/55/139 58/57/140
f 49/40/141 50/39/142 58/57/143 59/58/144
f 54/50/145 49/40/146 59/58/147 60/59/148
f 53/46/149 54/48/150 60/60/151 56/52/152
f 63/62/153 62/63/154 61/64/155
f 64/65/156 63/62/157 61/64/158
f 65/66/159 64/65/160 61/64/161
f 66/67/162 65/66/163 61/64/164
f 62/63/165 66/67/166 61/64/167
f 67/68/168 68/69/169 70/70/170 69/71/171
f 68/69/172 67/68/173 77/72/174 78/73/175
f 69/71/176 70/70/177 72/74/178 71/75/179
f 71/75/180 72/74/181 74/76/182 73/77/183
f 73/77/184 74/76/185 76/78/186 75/79/187
f 75/79/188 76/78/189 78/80/190 77/81/191
f 70/70/192 68/69/193 66/82/194 62/83/195
f 72/74/196 70/70/197 62/83/198 63/84/199
f 74/76/200 72/74/201 63/84/202 64/85/203
f 76/78/204 74/76/205 64/85/206 65/86/207
f 78/80/208 76/78/209 65/86/210 66/87/211
f 68/69/212 78/73/213 66/82/214
f 43/38/215 44/37/216 67/68/217 69/71/218
f 45/41/219 43/38/220 69/71/221 71/75/222
f 46/43/223 45/41/224 71/75/225 73/77/226
f 47/45/227 46/43/228 73/77/229 75/79/230
f 48/47/231 47/45/232 75/79/233 77/81/234
f 44/37/235 48/49/236 77/72/237 67/68/238
f 4/1/239 10/4/240 9/56/241 3/88/242
f 8/54/243 2/89/244 3/88/245 9/56/246
f 7/53/247 1/90/248 2/89/249 8/54/250
f 6/91/251 1/90/252 7/53/253 12/61/254
f 95/123/255 96/122/256 98/120/257 97/121/258 100/119/259 99/118/260 102/116/261 101/117/262
f 79/100/263 80/101/264 82/102/265 81/103/266
f 81/103/267 82/102/268 96/93/269 95/92/270
f 84/126/271 83/105/272 86/106/273 85/125/274
f 85/125/275 86/106/276 97/95/277 98/124/278
f 87/108/279 88/109/280 101/99/281 102/98/282
f 88/109/283 87/108/284 90/110/285 89/111/286
f 91/112/287 92/113/288 99/97/289 100/96/290
f 92/113/291 91/112/292 93/114/293 94/115/294
f 82/102/295 80/101/296 84/104/297 85/107/298
f 87/108/299 92/113/300 94/115/301 90/110/302
f 86/106/303 83/105/304 93/114/305 91/112/306
f 88/109/307 89/111/308 79/100/309 81/103/310
f 82/102/311 85/107/312 98/94/313 96/93/314
f 86/106/315 91/112/316 100/96/317 97/95/318
f 92/113/319 87/108/320 102/98/321 99/97/322
f 88/109/323 81/103/324 95/92/325 101/99/326
