# This file uses centimeters as units for non-parametric coordinates.

v -0.384065 0.000000 -0.000000
v 0.384064 0.000000 -0.000000
v 0.384065 1.958074 -0.000000
v 0.709659 1.723784 -0.000000
v 0.927214 1.373143 -0.000000
v 1.003609 0.959536 -0.000000
v 0.927214 0.545928 -0.000000
v 0.709659 0.195288 -0.000000
v -0.709659 0.195288 -0.000000
v -0.927214 0.545928 -0.000000
v -1.003609 0.959536 -0.000000
v -0.927214 1.373144 -0.000000
v -0.709659 1.723784 -0.000000
v -0.384064 1.958074 -0.000000
v 0.000000 2.040346 -0.000000
v 0.000000 0.000000 -0.000000
vt 0.839386 0.818753
vt 0.681932 0.922465
vt 0.502789 0.045835
vt 0.945166 0.662680
vt 0.983167 0.478008
vt 0.947604 0.292850
vt 0.843892 0.135396
vt 0.687704 0.047054
vt 0.160535 0.130891
vt 0.317874 0.044616
vt 0.054756 0.286964
vt 0.016755 0.471636
vt 0.052318 0.656793
vt 0.156030 0.814247
vt 0.312103 0.920027
vt 0.496775 0.958028
vn 0.000000 0.000000 1.000000
vn 0.000000 0.000000 1.000000
vn 0.000000 0.000000 1.000000
vn 0.000000 0.000000 1.000000
vn 0.000000 0.000000 1.000000
vn 0.000000 0.000000 1.000000
vn 0.000000 -0.000000 1.000000
vn 0.000000 -0.000000 1.000000
vn 0.000000 -0.000000 1.000000
vn -0.000000 0.000000 1.000000
vn -0.000000 0.000000 1.000000
vn -0.000000 0.000000 1.000000
vn 0.000000 0.000000 1.000000
vn 0.000000 0.000000 1.000000
vn 0.000000 0.000000 1.000000
vn 0.000000 0.000000 1.000000
vn 0.000000 0.000000 1.000000
vn 0.000000 0.000000 1.000000
vn 0.000000 0.000000 1.000000
vn 0.000000 0.000000 1.000000
vn 0.000000 0.000000 1.000000
vn 0.000000 0.000000 1.000000
vn 0.000000 0.000000 1.000000
vn 0.000000 0.000000 1.000000
vn 0.000000 0.000000 1.000000
vn 0.000000 0.000000 1.000000
vn 0.000000 0.000000 1.000000
vn -0.000000 -0.000000 1.000000
vn -0.000000 -0.000000 1.000000
vn -0.000000 -0.000000 1.000000
vn 0.000000 0.000000 1.000000
vn 0.000000 0.000000 1.000000
vn 0.000000 0.000000 1.000000
vn 0.000000 0.000000 1.000000
vn 0.000000 0.000000 1.000000
vn 0.000000 0.000000 1.000000
vn 0.000000 0.000000 1.000000
vn 0.000000 0.000000 1.000000
vn 0.000000 0.000000 1.000000
vn 0.000000 0.000000 1.000000
vn 0.000000 0.000000 1.000000
vn 0.000000 0.000000 1.000000
s off
f 4/1/1 3/2/2 16/3/3
f 5/4/4 4/1/5 16/3/6
f 6/5/7 5/4/8 16/3/9
f 7/6/10 6/5/11 16/3/12
f 8/7/13 7/6/14 16/3/15
f 2/8/16 8/7/17 16/3/18
f 9/9/19 1/10/20 16/3/21
f 10/11/22 9/9/23 16/3/24
f 11/12/25 10/11/26 16/3/27
f 12/13/28 11/12/29 16/3/30
f 13/14/31 12/13/32 16/3/33
f 14/15/34 13/14/35 16/3/36
f 15/16/37 14/15/38 16/3/39
f 3/2/40 15/16/41 16/3/42
