# This file uses centimeters as units for non-parametric coordinates.

mtllib rockA.mtl
g set6 tweakSet2
v -0.339735 -0.538337 0.280746
v -0.339735 -0.646173 -0.370770
v 0.339733 -0.646173 -0.370770
v -0.560820 -0.192212 0.541687
v 0.560818 -0.091063 -0.541687
v 0.339733 -0.591603 -0.041073
v 0.055292 -0.538337 0.280746
v 0.240561 -0.192212 0.541687
v 0.560818 -0.165775 0.258518
v 0.218899 0.628523 0.140381
v -0.085102 0.511716 0.417397
v -0.455875 0.301883 -0.013519
v -0.072824 0.646173 0.098522
v -0.107103 0.427995 -0.328087
v 0.218899 0.639557 0.114212
v 0.350239 0.437522 -0.324169
v -0.478209 0.146502 0.481880
v -0.560820 -0.123056 -0.199009
v -0.220255 -0.091063 -0.541687
v -0.468134 -0.323792 -0.470032
vt 0.616765 0.390690
vt 0.640192 0.641598
vt 0.499517 0.479083
vt 0.784138 0.578764
vt 0.731503 0.410949
vt 0.552126 0.732747
vt 0.465426 0.700185
vt 0.678116 0.343358
vt 0.393233 0.889614
vt 0.924897 0.058855
vt 0.810033 0.987603
vt 0.922764 0.818010
vt 0.732224 0.169998
vt 0.257855 0.562841
vt 0.228558 0.674951
vt 0.732378 0.162553
vt 0.366433 0.443372
vt 0.332918 0.324442
vt 0.617349 0.139015
vt 0.664255 0.213970
vt 0.728606 0.163697
vt 0.824199 0.257244
vt 0.244256 0.241926
vt 0.457893 0.018444
vt 0.545179 0.095499
vt 0.631335 0.266899
vt 0.651029 0.757679
vt 0.479931 0.835886
vt 0.117437 0.843965
vt 0.023419 0.650092
vt 0.879565 0.670134
vt 0.905291 0.505574
vt 0.872130 0.397366
vt 0.186662 0.423281
vt 0.974263 0.258805
vn -0.000000 -0.986577 0.163294
vn -0.000000 -0.986577 0.163294
vn -0.000000 -0.986577 0.163294
vn -0.000000 -0.986577 0.163294
vn 0.000000 -0.986577 0.163296
vn 0.000000 -0.986577 0.163296
vn 0.000000 -0.986577 0.163296
vn -0.857745 -0.511849 -0.047790
vn -0.857745 -0.511849 -0.047789
vn -0.857745 -0.511849 -0.047790
vn -0.915276 -0.400628 0.042047
vn -0.915276 -0.400628 0.042047
vn -0.915276 -0.400628 0.042047
vn -0.915276 -0.400628 0.042047
vn 0.513596 -0.664506 0.542818
vn 0.513596 -0.664506 0.542818
vn 0.513596 -0.664506 0.542818
vn 0.513596 -0.664506 0.542818
vn 0.570902 0.372753 0.731523
vn 0.570902 0.372753 0.731523
vn 0.570902 0.372753 0.731523
vn 0.570902 0.372753 0.731523
vn 0.000003 0.173878 0.984767
vn 0.000003 0.173878 0.984767
vn 0.000003 0.173878 0.984767
vn 0.000003 0.173878 0.984767
vn 0.923420 0.379240 0.058935
vn 0.923420 0.379240 0.058935
vn 0.923420 0.379240 0.058935
vn 0.923420 0.379240 0.058935
vn 0.894990 0.411041 0.173318
vn 0.894990 0.411041 0.173318
vn 0.894990 0.411041 0.173318
vn 0.000000 -0.601987 0.798506
vn 0.000000 -0.601987 0.798506
vn 0.000000 -0.601987 0.798506
vn 0.000000 -0.601987 0.798506
vn 0.911996 -0.410134 -0.007311
vn 0.911996 -0.410134 -0.007311
vn 0.911996 -0.410134 -0.007311
vn 0.911996 -0.410134 -0.007311
vn 0.000000 -0.294266 -0.955724
vn 0.000000 -0.294266 -0.955724
vn 0.000000 -0.294266 -0.955724
vn 0.000000 -0.294266 -0.955724
vn 0.000000 -0.294266 -0.955724
vn 0.000000 -0.294266 -0.955724
vn 0.000000 -0.294266 -0.955724
vn -0.676108 0.413905 -0.609557
vn -0.676109 0.413905 -0.609557
vn -0.676108 0.413905 -0.609557
vn -0.676109 0.413905 -0.609557
vn -0.664846 0.712210 0.225250
vn -0.664846 0.712210 0.225250
vn -0.664846 0.712210 0.225250
vn -0.664846 0.712210 0.225250
vn 0.007922 0.899798 -0.436235
vn 0.007922 0.899798 -0.436235
vn 0.007922 0.899798 -0.436235
vn 0.007922 0.899798 -0.436235
vn -0.000004 0.921434 0.388534
vn -0.000004 0.921434 0.388534
vn -0.000004 0.921434 0.388534
vn -0.000004 0.921434 0.388534
vn -0.000003 0.380550 -0.924760
vn -0.000003 0.380550 -0.924760
vn -0.000003 0.380550 -0.924760
vn -0.000003 0.380550 -0.924760
vn -0.971781 0.234550 0.025048
vn -0.971781 0.234550 0.025048
vn -0.971781 0.234550 0.025048
vn -0.971781 0.234550 0.025048
vn -0.573315 0.747232 -0.336086
vn -0.573315 0.747232 -0.336086
vn -0.573316 0.747232 -0.336086
vn -0.637730 0.498427 -0.587257
vn -0.637730 0.498427 -0.587257
vn -0.637730 0.498427 -0.587257
g TurtleDefaultBakeLayer b
usemtl initialShadingGroup
f 1/3/1 2/7/2 3/15/3 6/14/4
f 6/14/5 7/17/6 1/3/7
f 4/1/8 18/2/9 1/3/10
f 20/6/11 2/7/12 1/3/13 18/2/14
f 7/17/15 6/14/16 9/34/17 8/18/18
f 8/18/19 9/23/20 10/24/21 11/25/22
f 17/26/23 4/1/24 8/18/25 11/25/26
f 9/10/27 5/35/28 16/22/29 15/13/30
f 10/16/31 9/10/32 15/13/33
f 1/3/34 7/17/35 8/18/36 4/1/37
f 5/30/38 9/34/39 6/14/40 3/15/41
f 5/29/42 3/15/43 19/9/44
f 20/28/45 19/9/46 3/15/47 2/7/48
f 18/2/49 12/4/50 14/31/51 19/27/52
f 11/33/53 13/32/54 12/4/55 17/5/56
f 14/8/57 13/20/58 15/13/59 16/22/60
f 10/21/61 15/13/62 13/20/63 11/19/64
f 19/27/65 14/31/66 16/12/67 5/11/68
f 12/4/69 18/2/70 4/1/71 17/5/72
f 12/4/73 13/32/74 14/31/75
f 18/2/76 19/27/77 20/6/78
