# This file uses centimeters as units for non-parametric coordinates.

v 0.131879 -0.000000 0.029609
v 0.081506 -0.000000 -0.125425
v -0.081506 -0.000000 -0.125425
v -0.131879 -0.000000 0.029609
v 0.000000 -0.000000 0.125425
v 0.092039 0.251719 0.020664
v 0.056883 0.251719 -0.087534
v -0.044782 0.251719 -0.111317
v -0.092039 0.251719 0.020664
v 0.007514 0.251719 0.068164
v -0.000000 -0.134417 -0.013241
v -0.000000 0.360337 -0.013241
vt 0.941382 0.529934
vt 0.632262 0.479587
vt 0.488855 0.758020
vt 0.709345 0.980448
vt 0.989023 0.839483
vt 0.019758 0.098821
vt 0.208615 0.039533
vt 0.405021 0.014894
vt 0.602947 0.017637
vt 0.797530 0.053963
vt 0.978560 0.134030
vt 0.145548 0.415120
vt 0.277352 0.373743
vt 0.402747 0.355022
vt 0.572966 0.356709
vt 0.703895 0.384963
vt 0.812244 0.431028
vt 0.028824 0.939791
vt 0.414640 0.974872
vt 0.493664 0.684872
vt 0.247340 0.476577
vt 0.010888 0.623497
vt 0.752173 0.717494
vt 0.231852 0.744115
vn 0.941929 0.138208 -0.306052
vn 0.941930 0.138208 -0.306052
vn 0.941930 0.138208 -0.306052
vn 0.941929 0.138208 -0.306051
vn 0.089046 0.100214 -0.990973
vn 0.089046 0.100214 -0.990973
vn 0.089046 0.100214 -0.990973
vn 0.089046 0.100214 -0.990973
vn -0.936623 0.145713 -0.318600
vn -0.936623 0.145713 -0.318600
vn -0.936622 0.145713 -0.318600
vn -0.936622 0.145713 -0.318600
vn -0.519764 0.159268 0.839332
vn -0.519764 0.159268 0.839333
vn -0.519764 0.159268 0.839332
vn -0.519764 0.159268 0.839332
vn 0.546434 0.143593 0.825101
vn 0.546434 0.143593 0.825101
vn 0.546434 0.143593 0.825101
vn 0.546434 0.143593 0.825101
vn 0.730170 -0.640755 -0.237247
vn 0.730170 -0.640755 -0.237247
vn 0.730170 -0.640754 -0.237247
vn 0.000000 -0.640755 -0.767746
vn 0.000000 -0.640755 -0.767746
vn 0.000000 -0.640755 -0.767746
vn -0.730170 -0.640755 -0.237246
vn -0.730170 -0.640755 -0.237246
vn -0.730170 -0.640755 -0.237246
vn -0.451270 -0.640755 0.621119
vn -0.451270 -0.640755 0.621119
vn -0.451270 -0.640755 0.621119
vn 0.451270 -0.640755 0.621119
vn 0.451270 -0.640755 0.621119
vn 0.451270 -0.640755 0.621119
vn 0.775686 0.578611 -0.252036
vn 0.775686 0.578611 -0.252036
vn 0.775685 0.578611 -0.252036
vn 0.179150 0.617614 -0.765806
vn 0.179150 0.617614 -0.765806
vn 0.179150 0.617614 -0.765806
vn -0.773986 0.569336 -0.277133
vn -0.773986 0.569336 -0.277133
vn -0.773986 0.569336 -0.277133
vn -0.361617 0.542994 0.757886
vn -0.361617 0.542994 0.757886
vn -0.361617 0.542994 0.757886
vn 0.403753 0.566392 0.718459
vn 0.403753 0.566392 0.718459
vn 0.403753 0.566392 0.718459
s off
f 1/6/1 2/7/2 7/13/3 6/12/4
f 2/7/5 3/8/6 8/14/7 7/13/8
f 3/8/9 4/9/10 9/15/11 8/14/12
f 4/9/13 5/10/14 10/16/15 9/15/16
f 5/10/17 1/11/18 6/17/19 10/16/20
f 2/2/21 1/1/22 11/23/23
f 3/3/24 2/2/25 11/23/26
f 4/4/27 3/3/28 11/23/29
f 5/5/30 4/4/31 11/23/32
f 1/1/33 5/5/34 11/23/35
f 6/21/36 7/20/37 12/24/38
f 7/20/39 8/19/40 12/24/41
f 8/19/42 9/18/43 12/24/44
f 9/18/45 10/22/46 12/24/47
f 10/22/48 6/21/49 12/24/50
