# This file uses centimeters as units for non-parametric coordinates.

mtllib Gem.mtl
g default
v 3.943980 45.427790 2.277058
v 2.642628 47.506166 4.577167
v 0.000000 45.427790 4.554116
v -2.642628 47.506166 4.577167
v -3.943980 45.427790 2.277058
v -5.285257 47.506166 0.000000
v -3.943980 45.427790 -2.277058
v -2.642628 47.506166 -4.577167
v 0.000000 45.427790 -4.554116
v 2.642628 47.506166 -4.577167
v 3.943980 45.427790 -2.277058
v 5.285257 47.506166 0.000000
v 5.964466 7.054043 3.443586
v 4.071398 7.054043 7.051867
v 0.000000 7.054043 6.887172
v -4.071398 7.054043 7.051867
v -5.964466 7.054043 3.443586
v -8.142795 7.054043 -0.000000
v -5.964466 7.054043 -3.443586
v -4.071398 7.054043 -7.051867
v 0.000000 7.054043 -6.887172
v 4.071398 7.054043 -7.051867
v 5.964466 7.054043 -3.443586
v 8.142795 7.054043 -0.000000
v 0.000000 57.473538 0.000000
v 0.000000 -0.480006 -0.000000
v 7.437303 19.536238 4.293928
v 4.983297 17.457858 8.631326
v 0.000000 19.536238 8.587857
v -4.983297 17.457858 8.631326
v -7.437303 19.536238 4.293928
v -9.966595 17.457858 -0.000000
v -7.437303 19.536238 -4.293928
v -4.983297 17.457858 -8.631326
v 0.000000 19.536238 -8.587857
v 4.983297 17.457858 -8.631326
v 7.437303 19.536238 -4.293928
v 9.966595 17.457858 -0.000000
v 6.489019 33.674994 3.746438
v 4.347910 33.866523 7.530799
v 0.000000 33.674994 7.492876
v -4.347910 33.866523 7.530799
v -6.489019 33.674994 3.746438
v -8.695821 33.866523 0.000000
v -6.489019 33.674994 -3.746438
v -4.347910 33.866523 -7.530799
v 0.000000 33.674994 -7.492876
v 4.347910 33.866523 -7.530799
v 6.489019 33.674994 -3.746438
v 8.695821 33.866523 0.000000
vt 0.452928 0.647147
vt 0.529025 0.634340
vt 0.645228 0.768065
vt 0.595610 0.803846
vt 0.557589 0.568875
vt 0.706362 0.750734
vt 0.627414 0.553847
vt 0.735462 0.694245
vt 0.655042 0.481793
vt 0.780365 0.652700
vt 0.726119 0.463109
vt 0.819365 0.609584
vt 0.755687 0.390227
vt 0.869362 0.584020
vt 0.832270 0.376226
vt 0.917912 0.556179
vt 0.862031 0.300205
vt 0.974088 0.551880
vt 0.314337 0.799944
vt 0.473746 0.919542
vt 0.343236 0.727656
vt 0.510657 0.877471
vt 0.420530 0.713113
vt 0.545621 0.833530
vt 0.239667 0.236141
vt 0.220115 0.281243
vt 0.142163 0.061126
vt 0.287517 0.238768
vt 0.294416 0.191346
vt 0.342497 0.181112
vt 0.335348 0.133374
vt 0.380985 0.110578
vt 0.357410 0.064439
vt 0.396832 0.028959
vt 0.102797 0.272762
vt 0.143356 0.305004
vt 0.174738 0.264785
vt 0.666193 0.957254
vt 0.309977 0.458357
vt 0.360138 0.424178
vt 0.409649 0.388040
vt 0.454878 0.346667
vt 0.498314 0.304269
vt 0.537985 0.256247
vt 0.574979 0.208727
vt 0.608099 0.154867
vt 0.085585 0.555216
vt 0.141792 0.536376
vt 0.201144 0.514579
vt 0.255050 0.487730
vt 0.637699 0.103507
vt 0.233926 0.814052
vt 0.458399 0.973752
vt 0.060214 0.304380
vt 0.916740 0.752285
vn 0.865964 0.011918 0.499964
vn 0.499089 -0.060334 0.864448
vn 0.474542 -0.315025 0.821930
vn 0.825090 -0.303813 0.476366
vn -0.000000 0.011918 0.999929
vn 0.000000 -0.303813 0.952732
vn -0.499089 -0.060334 0.864448
vn -0.474542 -0.315025 0.821930
vn -0.865964 0.011918 0.499964
vn -0.825090 -0.303813 0.476366
vn -0.998178 -0.060334 -0.000000
vn -0.949083 -0.315025 0.000000
vn -0.865964 0.011918 -0.499965
vn -0.825090 -0.303813 -0.476366
vn -0.499089 -0.060334 -0.864448
vn -0.474542 -0.315025 -0.821930
vn 0.000000 0.011918 -0.999929
vn 0.000000 -0.303813 -0.952732
vn 0.499089 -0.060334 -0.864448
vn 0.474542 -0.315025 -0.821930
vn 0.865964 0.011918 -0.499964
vn 0.825090 -0.303813 -0.476366
vn 0.998178 -0.060334 -0.000000
vn 0.949083 -0.315025 -0.000000
vn 0.467354 0.355418 0.809480
vn 0.841440 0.236583 0.485806
vn 0.000000 1.000000 -0.000000
vn 0.000000 0.236583 0.971611
vn -0.467354 0.355418 0.809480
vn -0.841440 0.236583 0.485806
vn -0.934708 0.355418 -0.000000
vn -0.841440 0.236583 -0.485806
vn -0.467354 0.355418 -0.809480
vn 0.000000 0.236583 -0.971611
vn 0.467354 0.355418 -0.809480
vn 0.841440 0.236583 -0.485806
vn 0.934708 0.355418 0.000000
vn 0.000000 -1.000000 -0.000000
vn 0.858825 0.128683 0.495843
vn 0.494128 0.152813 0.855854
vn -0.000000 0.128683 0.991686
vn -0.494128 0.152813 0.855854
vn -0.858825 0.128683 0.495843
vn -0.988255 0.152813 -0.000000
vn -0.858825 0.128683 -0.495843
vn -0.494128 0.152813 -0.855854
vn 0.000000 0.128683 -0.991686
vn 0.494128 0.152813 -0.855854
vn 0.858825 0.128683 -0.495843
vn 0.988255 0.152813 0.000000
s 1
g pCylinder2
usemtl initialShadingGroup
f 27/1/1 28/2/2 14/3/3 13/4/4
f 28/2/2 29/5/5 15/6/6 14/3/3
f 29/5/5 30/7/7 16/8/8 15/6/6
f 30/7/7 31/9/9 17/10/10 16/8/8
f 31/9/9 32/11/11 18/12/12 17/10/10
f 32/11/11 33/13/13 19/14/14 18/12/12
f 33/13/13 34/15/15 20/16/16 19/14/14
f 34/15/15 35/17/17 21/18/18 20/16/16
f 35/52/17 36/19/19 22/20/20 21/53/18
f 36/19/19 37/21/21 23/22/22 22/20/20
f 37/21/21 38/23/23 24/24/24 23/22/22
f 38/23/23 27/1/1 13/4/4 24/24/24
f 2/25/25 1/26/26 25/27/27
f 3/28/28 2/25/25 25/27/27
f 4/29/29 3/28/28 25/27/27
f 5/30/30 4/29/29 25/27/27
f 6/31/31 5/30/30 25/27/27
f 7/32/32 6/31/31 25/27/27
f 8/33/33 7/32/32 25/27/27
f 9/34/34 8/33/33 25/27/27
f 10/35/35 9/54/34 25/27/27
f 11/36/36 10/35/35 25/27/27
f 12/37/37 11/36/36 25/27/27
f 1/26/26 12/37/37 25/27/27
f 13/4/4 14/3/3 26/38/38
f 14/3/3 15/6/6 26/38/38
f 15/6/6 16/8/8 26/55/38
f 16/8/8 17/10/10 26/55/38
f 17/10/10 18/12/12 26/55/38
f 18/12/12 19/14/14 26/55/38
f 19/14/14 20/16/16 26/55/38
f 20/16/16 21/18/18 26/55/38
f 21/53/18 22/20/20 26/38/38
f 22/20/20 23/22/22 26/38/38
f 23/22/22 24/24/24 26/38/38
f 24/24/24 13/4/4 26/38/38
f 39/39/39 40/40/40 28/2/2 27/1/1
f 40/40/40 41/41/41 29/5/5 28/2/2
f 41/41/41 42/42/42 30/7/7 29/5/5
f 42/42/42 43/43/43 31/9/9 30/7/7
f 43/43/43 44/44/44 32/11/11 31/9/9
f 44/44/44 45/45/45 33/13/13 32/11/11
f 45/45/45 46/46/46 34/15/15 33/13/13
f 46/46/46 47/51/47 35/17/17 34/15/15
f 47/47/47 48/48/48 36/19/19 35/52/17
f 48/48/48 49/49/49 37/21/21 36/19/19
f 49/49/49 50/50/50 38/23/23 37/21/21
f 50/50/50 39/39/39 27/1/1 38/23/23
f 1/26/26 2/25/25 40/40/40 39/39/39
f 2/25/25 3/28/28 41/41/41 40/40/40
f 3/28/28 4/29/29 42/42/42 41/41/41
f 4/29/29 5/30/30 43/43/43 42/42/42
f 5/30/30 6/31/31 44/44/44 43/43/43
f 6/31/31 7/32/32 45/45/45 44/44/44
f 7/32/32 8/33/33 46/46/46 45/45/45
f 8/33/33 9/34/34 47/51/47 46/46/46
f 9/54/34 10/35/35 48/48/48 47/47/47
f 10/35/35 11/36/36 49/49/49 48/48/48
f 11/36/36 12/37/37 50/50/50 49/49/49
f 12/37/37 1/26/26 39/39/39 50/50/50
